<?xml version="1.0" encoding="UTF-8" standalone="no"?>
<!-- Created with Inkscape (http://www.inkscape.org/) -->

<svg
   xmlns:dc="http://purl.org/dc/elements/1.1/"
   xmlns:cc="http://creativecommons.org/ns#"
   xmlns:rdf="http://www.w3.org/1999/02/22-rdf-syntax-ns#"
   xmlns:svg="http://www.w3.org/2000/svg"
   xmlns="http://www.w3.org/2000/svg"
   xmlns:sodipodi="http://sodipodi.sourceforge.net/DTD/sodipodi-0.dtd"
   xmlns:inkscape="http://www.inkscape.org/namespaces/inkscape"
   width="50.762047mm"
   height="11.151278mm"
   viewBox="0 0 50.762047 11.151278"
   version="1.1"
   id="svg7257"
   inkscape:version="0.92.3 (2405546, 2018-03-11)"
   sodipodi:docname="brand-with-logo.svg"
   inkscape:export-filename="/data/Workspaces/SELF/Logo/cyberloop-consulting-brand-with-logo.png"
   inkscape:export-xdpi="1219.2"
   inkscape:export-ydpi="1219.2">
  <defs
     id="defs7251" />
  <sodipodi:namedview
     id="base"
     pagecolor="#ffffff"
     bordercolor="#666666"
     borderopacity="1.0"
     inkscape:pageopacity="0.0"
     inkscape:pageshadow="2"
     inkscape:zoom="7.919596"
     inkscape:cx="97.067304"
     inkscape:cy="67.340251"
     inkscape:document-units="mm"
     inkscape:current-layer="layer1"
     showgrid="false"
     fit-margin-top="0"
     fit-margin-left="0"
     fit-margin-right="0"
     fit-margin-bottom="0"
     inkscape:window-width="2736"
     inkscape:window-height="1731"
     inkscape:window-x="-12"
     inkscape:window-y="-12"
     inkscape:window-maximized="1" />
  <metadata
     id="metadata7254">
    <rdf:RDF>
      <cc:Work
         rdf:about="">
        <dc:format>image/svg+xml</dc:format>
        <dc:type
           rdf:resource="http://purl.org/dc/dcmitype/StillImage" />
        <dc:title></dc:title>
      </cc:Work>
    </rdf:RDF>
  </metadata>
  <g
     inkscape:label="Layer 1"
     inkscape:groupmode="layer"
     id="layer1"
     transform="translate(-102.47886,-150.3815)">
    <path
       style="color:#000000;font-style:normal;font-variant:normal;font-weight:normal;font-stretch:normal;font-size:medium;line-height:normal;font-family:sans-serif;font-variant-ligatures:normal;font-variant-position:normal;font-variant-caps:normal;font-variant-numeric:normal;font-variant-alternates:normal;font-feature-settings:normal;text-indent:0;text-align:start;text-decoration:none;text-decoration-line:none;text-decoration-style:solid;text-decoration-color:#000000;letter-spacing:normal;word-spacing:normal;text-transform:none;writing-mode:lr-tb;direction:ltr;text-orientation:mixed;dominant-baseline:auto;baseline-shift:baseline;text-anchor:start;white-space:normal;shape-padding:0;clip-rule:nonzero;display:inline;overflow:visible;visibility:visible;opacity:1;isolation:auto;mix-blend-mode:normal;color-interpolation:sRGB;color-interpolation-filters:linearRGB;solid-color:#000000;solid-opacity:1;vector-effect:none;fill:#1e88e5;fill-opacity:1;fill-rule:nonzero;stroke:#1565c0;stroke-width:0.02989792;stroke-linecap:round;stroke-linejoin:miter;stroke-miterlimit:4;stroke-dasharray:none;stroke-dashoffset:0;stroke-opacity:1;color-rendering:auto;image-rendering:auto;shape-rendering:auto;text-rendering:auto;enable-background:accumulate"
       d="m 105.52905,150.41598 c -0.74675,0.0449 -1.46896,0.35825 -2.01434,0.86972 -0.76302,0.7099 -1.15016,1.80153 -0.98206,2.83323 0.11608,0.79145 0.55669,1.51622 1.17119,2.02177 0.77115,0.62424 1.84,0.85756 2.80144,0.60877 0.51286,-0.12914 0.99777,-0.39363 1.37807,-0.75935 0.0757,-0.12388 -0.10815,-0.26413 -0.20766,-0.15845 -0.64254,0.57786 -1.54019,0.85395 -2.39599,0.71784 -0.51965,-0.0745 -1.01831,-0.30384 -1.42662,-0.63082 -0.65166,-0.53949 -1.07872,-1.35553 -1.09205,-2.20744 -0.0259,-0.84112 0.33562,-1.68051 0.95403,-2.24841 0.4716,-0.42724 1.07361,-0.71564 1.71111,-0.76992 0.81976,-0.0965 1.64894,0.21661 2.27033,0.74433 0.13436,0.0764 0.26737,-0.13467 0.14042,-0.22286 -0.63555,-0.53926 -1.47079,-0.85132 -2.30787,-0.79841 z"
       id="path4785"
       inkscape:connector-curvature="0" />
    <path
       style="color:#000000;font-style:normal;font-variant:normal;font-weight:normal;font-stretch:normal;font-size:medium;line-height:normal;font-family:sans-serif;font-variant-ligatures:normal;font-variant-position:normal;font-variant-caps:normal;font-variant-numeric:normal;font-variant-alternates:normal;font-feature-settings:normal;text-indent:0;text-align:start;text-decoration:none;text-decoration-line:none;text-decoration-style:solid;text-decoration-color:#000000;letter-spacing:normal;word-spacing:normal;text-transform:none;writing-mode:lr-tb;direction:ltr;text-orientation:mixed;dominant-baseline:auto;baseline-shift:baseline;text-anchor:start;white-space:normal;shape-padding:0;clip-rule:nonzero;display:inline;overflow:visible;visibility:visible;opacity:1;isolation:auto;mix-blend-mode:normal;color-interpolation:sRGB;color-interpolation-filters:linearRGB;solid-color:#000000;solid-opacity:1;vector-effect:none;fill:#03a9f4;fill-opacity:1;fill-rule:nonzero;stroke:#0288d1;stroke-width:0.03;stroke-linecap:round;stroke-linejoin:round;stroke-miterlimit:4;stroke-dasharray:none;stroke-dashoffset:0;stroke-opacity:1;color-rendering:auto;image-rendering:auto;shape-rendering:auto;text-rendering:auto;enable-background:accumulate"
       d="m 108.25964,150.4165 c -0.12932,0.002 -0.16582,0.1764 -0.0713,0.25121 0.94448,1.30171 1.88896,2.60342 2.83344,3.90512 0.004,0.72689 -0.007,1.45511 0.005,2.18117 0.0339,0.14503 0.26974,0.10937 0.25923,-0.0392 -0.002,-0.73699 0.004,-1.47445 -0.003,-2.21116 -0.11146,-0.20109 -0.2694,-0.37763 -0.39848,-0.56939 -0.84347,-1.16014 -1.68216,-2.3242 -2.52862,-3.4819 -0.0257,-0.0244 -0.0615,-0.0377 -0.0969,-0.0359 z m 4.76663,0.005 c -0.13823,0.018 -0.17105,0.1871 -0.255,0.27705 -0.5253,0.77771 -1.0506,1.55542 -1.57589,2.33312 -0.61821,-0.85162 -1.23098,-1.70771 -1.85257,-2.55655 -0.10767,-0.11081 -0.29418,0.0547 -0.19692,0.17479 0.65528,0.90257 1.30496,1.80976 1.96373,2.70946 0.0961,0.0894 0.21478,-0.009 0.25407,-0.10492 0.59501,-0.88317 1.19533,-1.76318 1.78703,-2.64831 0.0398,-0.0847 -0.031,-0.18968 -0.12445,-0.18464 z"
       id="path4798"
       inkscape:connector-curvature="0" />
    <path
       style="color:#000000;font-style:normal;font-variant:normal;font-weight:normal;font-stretch:normal;font-size:medium;line-height:normal;font-family:sans-serif;font-variant-ligatures:normal;font-variant-position:normal;font-variant-caps:normal;font-variant-numeric:normal;font-variant-alternates:normal;font-feature-settings:normal;text-indent:0;text-align:start;text-decoration:none;text-decoration-line:none;text-decoration-style:solid;text-decoration-color:#000000;letter-spacing:normal;word-spacing:normal;text-transform:none;writing-mode:lr-tb;direction:ltr;text-orientation:mixed;dominant-baseline:auto;baseline-shift:baseline;text-anchor:start;white-space:normal;shape-padding:0;clip-rule:nonzero;display:inline;overflow:visible;visibility:visible;opacity:1;isolation:auto;mix-blend-mode:normal;color-interpolation:sRGB;color-interpolation-filters:linearRGB;solid-color:#000000;solid-opacity:1;vector-effect:none;fill:#1e88e5;fill-opacity:1;fill-rule:nonzero;stroke:#1565c0;stroke-width:0.02963333;stroke-linecap:round;stroke-linejoin:round;stroke-miterlimit:4;stroke-dasharray:none;stroke-dashoffset:0;stroke-opacity:1;color-rendering:auto;image-rendering:auto;shape-rendering:auto;text-rendering:auto;enable-background:accumulate"
       d="m 103.09984,160.0495 v 0.2589 h 31.92147 v -0.2589 z"
       id="path4800"
       inkscape:connector-curvature="0" />
    <path
       style="color:#000000;font-style:normal;font-variant:normal;font-weight:normal;font-stretch:normal;font-size:medium;line-height:normal;font-family:sans-serif;font-variant-ligatures:normal;font-variant-position:normal;font-variant-caps:normal;font-variant-numeric:normal;font-variant-alternates:normal;font-feature-settings:normal;text-indent:0;text-align:start;text-decoration:none;text-decoration-line:none;text-decoration-style:solid;text-decoration-color:#000000;letter-spacing:normal;word-spacing:normal;text-transform:none;writing-mode:lr-tb;direction:ltr;text-orientation:mixed;dominant-baseline:auto;baseline-shift:baseline;text-anchor:start;white-space:normal;shape-padding:0;clip-rule:nonzero;display:inline;overflow:visible;visibility:visible;opacity:1;isolation:auto;mix-blend-mode:normal;color-interpolation:sRGB;color-interpolation-filters:linearRGB;solid-color:#000000;solid-opacity:1;vector-effect:none;fill:#03a9f4;fill-opacity:1;fill-rule:nonzero;stroke:#0288d1;stroke-width:0.03;stroke-linecap:round;stroke-linejoin:round;stroke-miterlimit:4;stroke-dasharray:none;stroke-dashoffset:0;stroke-opacity:1;color-rendering:auto;image-rendering:auto;shape-rendering:auto;text-rendering:auto;enable-background:accumulate"
       d="m 114.60654,150.4134 c -0.13676,2.6e-4 -0.14315,0.15735 -0.13178,0.25802 0.002,2.02078 -0.003,4.04192 0.002,6.06249 0.0196,0.14996 0.26215,0.13416 0.26213,-0.0171 5.3e-4,-2.01295 6e-5,-4.0259 1.9e-4,-6.03885 0.0757,0 0.3015,0.003 0.41376,0.003 0.11251,0 0.11083,-0.0127 0.10817,0.0925 -2.6e-4,1.98525 0.004,3.96996 5.3e-4,5.95524 0.0248,0.17061 0.24162,0.1106 0.35704,0.12132 0.57858,-0.006 1.15824,0.0266 1.73599,-0.006 0.84058,-0.0602 1.54532,-0.80313 1.60317,-1.63648 0.10428,-0.82715 -0.49843,-1.67664 -1.31201,-1.85226 0.82065,-0.26538 1.17131,-1.34455 0.76195,-2.0776 -0.26914,-0.54826 -0.87534,-0.89891 -1.48496,-0.85776 -0.77217,-0.004 -1.54461,-0.0112 -2.3166,-0.007 z m 0.91932,0.26613 c 0.56732,0.005 1.13563,-0.0107 1.70222,0.0202 0.71155,0.10208 1.24484,0.87739 1.0482,1.57688 -0.0902,0.45298 -0.46909,0.79912 -0.90473,0.92023 -0.24757,0.10295 -0.51829,0.0465 -0.77849,0.0609 h -1.0672 z m 0.003,2.84272 c 0.55565,10e-4 1.11149,-0.002 1.66701,0.002 0.56772,0.0295 1.12754,0.363 1.36019,0.89169 0.35583,0.6876 0.0386,1.60435 -0.62698,1.97748 -0.50197,0.29588 -1.10433,0.17342 -1.65747,0.19593 -0.24428,-0.01 -0.52895,0.0185 -0.74584,-0.0208 0.001,-1.01537 0.002,-2.03075 0.003,-3.04612 z"
       id="path4850"
       inkscape:connector-curvature="0"
       sodipodi:nodetypes="cccccsccccccccccccccccccccccccc" />
    <path
       style="color:#000000;font-style:normal;font-variant:normal;font-weight:normal;font-stretch:normal;font-size:medium;line-height:normal;font-family:sans-serif;font-variant-ligatures:normal;font-variant-position:normal;font-variant-caps:normal;font-variant-numeric:normal;font-variant-alternates:normal;font-feature-settings:normal;text-indent:0;text-align:start;text-decoration:none;text-decoration-line:none;text-decoration-style:solid;text-decoration-color:#000000;letter-spacing:normal;word-spacing:normal;text-transform:none;writing-mode:lr-tb;direction:ltr;text-orientation:mixed;dominant-baseline:auto;baseline-shift:baseline;text-anchor:start;white-space:normal;shape-padding:0;clip-rule:nonzero;display:inline;overflow:visible;visibility:visible;opacity:1;isolation:auto;mix-blend-mode:normal;color-interpolation:sRGB;color-interpolation-filters:linearRGB;solid-color:#000000;solid-opacity:1;vector-effect:none;fill:#03a9f4;fill-opacity:1;fill-rule:nonzero;stroke:#0288d1;stroke-width:0.03;stroke-linecap:round;stroke-linejoin:round;stroke-miterlimit:4;stroke-dasharray:none;stroke-dashoffset:0;stroke-opacity:1;color-rendering:auto;image-rendering:auto;shape-rendering:auto;text-rendering:auto;enable-background:accumulate"
       d="m 120.54416,150.39686 c -0.13563,-2.6e-4 -0.14415,0.15497 -0.13229,0.25525 0.002,2.02601 -0.004,4.05195 0.003,6.07763 0.0399,0.15579 0.22858,0.0941 0.34482,0.10609 1.24511,-10e-4 2.49057,0.004 3.73546,-7.9e-4 0.14996,-0.0196 0.13416,-0.26215 -0.0171,-0.26213 -1.26708,-0.001 -2.53418,-0.001 -3.80126,-0.002 0,-0.78909 0,-1.5782 0,-2.36729 1.00643,-5.3e-4 2.01321,0.005 3.01942,2.6e-4 0.14996,-0.0196 0.13416,-0.26215 -0.0171,-0.26212 -1.00078,-10e-4 -2.00156,-0.002 -3.00234,-0.003 0,-0.17209 0,-0.34417 0,-0.51625 0.99385,-0.002 1.98806,0.003 2.98169,-0.002 0.14997,-0.0196 0.13417,-0.26215 -0.0171,-0.26213 -0.9882,-5.3e-4 -1.97641,-6e-5 -2.96461,-1.9e-4 0,-0.83233 0,-1.66467 0,-2.49701 1.27256,-0.001 2.54547,0.004 3.81782,-5.2e-4 0.15,-0.0193 0.13465,-0.2619 -0.0166,-0.26216 -1.31112,-0.001 -2.6223,-0.001 -3.93347,-0.002 z"
       id="path4859"
       inkscape:connector-curvature="0" />
    <path
       style="color:#000000;font-style:normal;font-variant:normal;font-weight:normal;font-stretch:normal;font-size:medium;line-height:normal;font-family:sans-serif;font-variant-ligatures:normal;font-variant-position:normal;font-variant-caps:normal;font-variant-numeric:normal;font-variant-alternates:normal;font-feature-settings:normal;text-indent:0;text-align:start;text-decoration:none;text-decoration-line:none;text-decoration-style:solid;text-decoration-color:#000000;letter-spacing:normal;word-spacing:normal;text-transform:none;writing-mode:lr-tb;direction:ltr;text-orientation:mixed;dominant-baseline:auto;baseline-shift:baseline;text-anchor:start;white-space:normal;shape-padding:0;clip-rule:nonzero;display:inline;overflow:visible;visibility:visible;opacity:1;isolation:auto;mix-blend-mode:normal;color-interpolation:sRGB;color-interpolation-filters:linearRGB;solid-color:#000000;solid-opacity:1;vector-effect:none;fill:#03a9f4;fill-opacity:1;fill-rule:nonzero;stroke:#0288d1;stroke-width:0.03;stroke-linecap:round;stroke-linejoin:round;stroke-miterlimit:4;stroke-dasharray:none;stroke-dashoffset:0;stroke-opacity:1;color-rendering:auto;image-rendering:auto;shape-rendering:auto;text-rendering:auto;enable-background:accumulate"
       d="m 125.69785,150.4227 c -0.13406,-3e-5 -0.14383,0.15311 -0.13169,0.25273 0.003,2.0203 -2.7e-4,4.04097 0.006,6.06106 0.0199,0.14992 0.26243,0.1336 0.26209,-0.0177 -10e-4,-2.01052 -0.003,-4.02105 -0.004,-6.03157 0.0792,-0.002 0.31459,0.002 0.42485,0.003 0.1092,8e-4 0.0953,-0.0139 0.0954,0.0876 -0.002,1.98608 -0.01,3.9725 -0.008,5.95837 0.0193,0.15 0.2619,0.13465 0.26215,-0.0166 0.002,-0.86382 0.003,-1.72765 0.004,-2.59148 l 1.40095,0.002 c 0.40965,0.88642 0.81466,1.77527 1.2272,2.66017 0.079,0.12895 0.29406,0.0157 0.23239,-0.12245 -0.42291,-0.91582 -0.84064,-1.83452 -1.26781,-2.74807 -0.0912,-0.0999 -0.24381,-0.0363 -0.36243,-0.0545 -0.40993,-5.3e-4 -0.81985,-7.9e-4 -1.22978,-0.001 2.7e-4,-0.17587 7.9e-4,-0.35175 10e-4,-0.52762 0.54316,-0.006 1.08991,0.0434 1.63071,-0.0221 0.54831,-0.0667 1.02131,-0.49106 1.18613,-1.01112 0.16382,-0.56528 -0.004,-1.24128 -0.50211,-1.58589 -0.29359,-0.23291 -0.67354,-0.31175 -1.04134,-0.29327 -0.72882,-0.003 -1.45773,-7.9e-4 -2.18656,-5.3e-4 z m 0.91777,0.26458 c 0.55957,0.0119 1.12272,-0.0286 1.68003,0.0257 0.51598,0.10404 0.94273,0.57977 0.92598,1.11704 0.0318,0.47934 -0.27733,0.94987 -0.71225,1.13936 -0.4805,0.17376 -1.00115,0.10806 -1.50104,0.10673 -0.41137,-0.003 -0.38701,0.0237 -0.39704,-0.17059 0.001,-0.73941 0.003,-1.47882 0.004,-2.21823 z"
       id="path4868"
       inkscape:connector-curvature="0"
       sodipodi:nodetypes="cccccsccccccccccccccccccccccccc" />
    <path
       style="color:#000000;font-style:normal;font-variant:normal;font-weight:normal;font-stretch:normal;font-size:medium;line-height:normal;font-family:sans-serif;font-variant-ligatures:normal;font-variant-position:normal;font-variant-caps:normal;font-variant-numeric:normal;font-variant-alternates:normal;font-feature-settings:normal;text-indent:0;text-align:start;text-decoration:none;text-decoration-line:none;text-decoration-style:solid;text-decoration-color:#000000;letter-spacing:normal;word-spacing:normal;text-transform:none;writing-mode:lr-tb;direction:ltr;text-orientation:mixed;dominant-baseline:auto;baseline-shift:baseline;text-anchor:start;white-space:normal;shape-padding:0;clip-rule:nonzero;display:inline;overflow:visible;visibility:visible;opacity:1;isolation:auto;mix-blend-mode:normal;color-interpolation:sRGB;color-interpolation-filters:linearRGB;solid-color:#000000;solid-opacity:1;vector-effect:none;fill:#03a9f4;fill-opacity:1;fill-rule:nonzero;stroke:#0288d1;stroke-width:0.03;stroke-linecap:round;stroke-linejoin:round;stroke-miterlimit:4;stroke-dasharray:none;stroke-dashoffset:0;stroke-opacity:1;color-rendering:auto;image-rendering:auto;shape-rendering:auto;text-rendering:auto;enable-background:accumulate"
       d="m 130.95489,150.42167 c -0.13481,0.002 -0.14135,0.15592 -0.13024,0.25569 0.001,2.02343 -0.004,4.04731 0.002,6.07047 0.0395,0.15517 0.22714,0.0944 0.34288,0.10606 1.20717,-0.001 2.41469,0.004 3.62164,-0.001 0.14997,-0.0196 0.13416,-0.26215 -0.0171,-0.26212 -0.96546,-8e-4 -1.93093,-8e-4 -2.8964,-0.001 -0.002,-2.01998 0.003,-4.04031 -0.002,-6.06007 -0.0196,-0.14996 -0.26215,-0.13416 -0.26213,0.0171 -5.3e-4,2.01432 -6e-5,4.02866 -1.9e-4,6.04298 -0.17484,0 -0.34968,0 -0.52451,0 -0.001,-2.01997 0.004,-4.04031 -0.001,-6.06005 -0.0107,-0.0618 -0.0693,-0.10954 -0.13203,-0.10753 z"
       id="path4873"
       inkscape:connector-curvature="0" />
    <path
       style="color:#000000;font-style:normal;font-variant:normal;font-weight:normal;font-stretch:normal;font-size:medium;line-height:normal;font-family:sans-serif;font-variant-ligatures:normal;font-variant-position:normal;font-variant-caps:normal;font-variant-numeric:normal;font-variant-alternates:normal;font-feature-settings:normal;text-indent:0;text-align:start;text-decoration:none;text-decoration-line:none;text-decoration-style:solid;text-decoration-color:#000000;letter-spacing:normal;word-spacing:normal;text-transform:none;writing-mode:lr-tb;direction:ltr;text-orientation:mixed;dominant-baseline:auto;baseline-shift:baseline;text-anchor:start;white-space:normal;shape-padding:0;clip-rule:nonzero;display:inline;overflow:visible;visibility:visible;opacity:1;isolation:auto;mix-blend-mode:normal;color-interpolation:sRGB;color-interpolation-filters:linearRGB;solid-color:#000000;solid-opacity:1;vector-effect:none;fill:#03a9f4;fill-opacity:1;fill-rule:nonzero;stroke:#0288d1;stroke-width:0.03;stroke-linecap:round;stroke-linejoin:round;stroke-miterlimit:4;stroke-dasharray:none;stroke-dashoffset:0;stroke-opacity:1;color-rendering:auto;image-rendering:auto;shape-rendering:auto;text-rendering:auto;enable-background:accumulate"
       d="m 149.25248,150.41236 a 0.13251324,0.13251324 0 0 0 -0.13384,0.1323 l 0.002,6.12985 a 0.13255,0.13255 0 1 0 0.2651,0 l -0.002,-5.99653 c 0.17436,8e-4 0.34685,0.004 0.5209,0.003 v 2.71559 a 0.13251324,0.13251324 0 0 0 -5.3e-4,0.01 v 3.26596 a 0.13255,0.13255 0 1 0 0.2651,0 v -3.13366 c 0.27531,2.6e-4 0.55079,2.6e-4 0.82631,-0.001 a 0.13251324,0.13251324 0 0 0 0.003,0 c 0.45249,-0.0123 1.01564,0.0767 1.47949,-0.23926 0.51502,-0.3107 0.81846,-0.91757 0.7338,-1.51825 -0.078,-0.71731 -0.69078,-1.32232 -1.42058,-1.35289 a 0.13251324,0.13251324 0 0 0 -0.001,0 c -0.84946,-0.0292 -1.69583,-0.008 -2.53779,-0.015 z m 0.91674,0.27027 c 0.53822,-0.002 1.07776,-0.009 1.61231,0.01 0.5872,0.0252 1.1049,0.53498 1.16737,1.11776 a 0.13251324,0.13251324 0 0 0 5.3e-4,0.005 c 0.0699,0.48957 -0.18587,1.00476 -0.6103,1.25936 a 0.13251324,0.13251324 0 0 0 -0.007,0.004 c -0.35842,0.24622 -0.85272,0.18154 -1.341,0.19481 l 0.003,-5.2e-4 c -0.27484,0.001 -0.5497,0.002 -0.82476,0.002 z"
       id="path4936"
       inkscape:connector-curvature="0" />
    <g
       aria-label="Consulting"
       style="font-style:normal;font-weight:normal;font-size:40px;line-height:1.25;font-family:sans-serif;letter-spacing:0.89999998px;word-spacing:0px;display:inline;fill:#03a9f4;fill-opacity:1;stroke:#0288d1;stroke-width:0.11338583;stroke-miterlimit:4;stroke-dasharray:none;stroke-opacity:1"
       id="text4804"
       transform="matrix(0.25796885,0,0,0.26458333,77.682509,122.98284)">
      <path
         d="m 232.0896,141.01886 q -0.14062,1.20312 -0.89062,1.85937 -0.74479,0.65105 -1.98438,0.65105 -1.34375,0 -2.15625,-0.96355 -0.80729,-0.96354 -0.80729,-2.57812 v -0.72917 q 0,-1.05729 0.375,-1.85937 0.38021,-0.80209 1.07292,-1.22917 0.69271,-0.43229 1.60417,-0.43229 1.20833,0 1.9375,0.67708 0.72916,0.67188 0.84895,1.86459 h -1.0052 q -0.13021,-0.90625 -0.56771,-1.3125 -0.43229,-0.40625 -1.21354,-0.40625 -0.95834,0 -1.50521,0.70833 -0.54167,0.70833 -0.54167,2.01562 v 0.73438 q 0,1.23437 0.51563,1.96354 0.51562,0.72917 1.4427,0.72917 0.83334,0 1.27605,-0.375 0.44791,-0.38021 0.59375,-1.31771 z"
         style="font-style:normal;font-variant:normal;font-weight:normal;font-stretch:normal;font-size:10.66666698px;font-family:Roboto;-inkscape-font-specification:Roboto;letter-spacing:1.73000002px;fill:#03a9f4;fill-opacity:1;stroke:#0288d1;stroke-width:0.11338583;stroke-miterlimit:4;stroke-dasharray:none;stroke-opacity:1"
         id="path977"
         inkscape:connector-curvature="0" />
      <path
         d="m 234.77273,140.55532 q 0,-0.82813 0.32292,-1.48959 0.32812,-0.66145 0.90625,-1.02083 0.58333,-0.35937 1.32812,-0.35937 1.15104,0 1.85938,0.79687 0.71354,0.79688 0.71354,2.11979 v 0.0677 q 0,0.82292 -0.31771,1.47917 -0.3125,0.65104 -0.90104,1.01562 -0.58334,0.36459 -1.34375,0.36459 -1.14584,0 -1.85938,-0.79688 -0.70833,-0.79687 -0.70833,-2.10937 z m 0.96875,0.11458 q 0,0.9375 0.43229,1.50521 0.4375,0.56771 1.16667,0.56771 0.73437,0 1.16666,-0.57292 0.4323,-0.57812 0.4323,-1.61458 0,-0.92709 -0.44271,-1.5 -0.4375,-0.57813 -1.16667,-0.57813 -0.71354,0 -1.15104,0.56771 -0.4375,0.56771 -0.4375,1.625 z"
         style="font-style:normal;font-variant:normal;font-weight:normal;font-stretch:normal;font-size:10.66666698px;font-family:Roboto;-inkscape-font-specification:Roboto;letter-spacing:1.73000002px;fill:#03a9f4;fill-opacity:1;stroke:#0288d1;stroke-width:0.11338583;stroke-miterlimit:4;stroke-dasharray:none;stroke-opacity:1"
         id="path979"
         inkscape:connector-curvature="0" />
      <path
         d="m 243.75273,137.78969 0.0312,0.70834 q 0.64583,-0.8125 1.6875,-0.8125 1.78646,0 1.80208,2.01562 v 3.72396 h -0.96354 v -3.72917 q -0.005,-0.60937 -0.28125,-0.90104 -0.27083,-0.29167 -0.84896,-0.29167 -0.46875,0 -0.82291,0.25 -0.35417,0.25 -0.55209,0.65625 v 4.01563 h -0.96354 v -5.63542 z"
         style="font-style:normal;font-variant:normal;font-weight:normal;font-stretch:normal;font-size:10.66666698px;font-family:Roboto;-inkscape-font-specification:Roboto;letter-spacing:1.73000002px;fill:#03a9f4;fill-opacity:1;stroke:#0288d1;stroke-width:0.11338583;stroke-miterlimit:4;stroke-dasharray:none;stroke-opacity:1"
         id="path981"
         inkscape:connector-curvature="0" />
      <path
         d="m 253.74835,141.93032 q 0,-0.39063 -0.29687,-0.60417 -0.29167,-0.21875 -1.02604,-0.375 -0.72917,-0.15625 -1.16146,-0.375 -0.42708,-0.21875 -0.63542,-0.52083 -0.20312,-0.30209 -0.20312,-0.71875 0,-0.69271 0.58333,-1.17188 0.58854,-0.47916 1.5,-0.47916 0.95833,0 1.55208,0.49479 0.59896,0.49479 0.59896,1.26562 h -0.96875 q 0,-0.39583 -0.33854,-0.68229 -0.33333,-0.28646 -0.84375,-0.28646 -0.52604,0 -0.82292,0.22917 -0.29687,0.22917 -0.29687,0.59896 0,0.34896 0.27604,0.52604 0.27604,0.17708 0.99479,0.33854 0.72396,0.16146 1.17188,0.38542 0.44791,0.22396 0.66146,0.54166 0.21875,0.3125 0.21875,0.76563 0,0.75521 -0.60417,1.21354 -0.60417,0.45313 -1.56771,0.45313 -0.67708,0 -1.19792,-0.23959 -0.52083,-0.23958 -0.8177,-0.66666 -0.29167,-0.4323 -0.29167,-0.9323 h 0.96354 q 0.026,0.48438 0.38542,0.77084 0.36458,0.28125 0.95833,0.28125 0.54688,0 0.875,-0.21875 0.33333,-0.22396 0.33333,-0.59375 z"
         style="font-style:normal;font-variant:normal;font-weight:normal;font-stretch:normal;font-size:10.66666698px;font-family:Roboto;-inkscape-font-specification:Roboto;letter-spacing:1.73000002px;fill:#03a9f4;fill-opacity:1;stroke:#0288d1;stroke-width:0.11338583;stroke-miterlimit:4;stroke-dasharray:none;stroke-opacity:1"
         id="path983"
         inkscape:connector-curvature="0" />
      <path
         d="m 261.17627,142.86782 q -0.5625,0.66146 -1.65104,0.66146 -0.90104,0 -1.375,-0.52084 -0.46875,-0.52604 -0.47396,-1.55208 v -3.66667 h 0.96354 v 3.64063 q 0,1.28125 1.04167,1.28125 1.10417,0 1.46875,-0.82292 v -4.09896 h 0.96354 v 5.63542 h -0.91667 z"
         style="font-style:normal;font-variant:normal;font-weight:normal;font-stretch:normal;font-size:10.66666698px;font-family:Roboto;-inkscape-font-specification:Roboto;letter-spacing:1.73000002px;fill:#03a9f4;fill-opacity:1;stroke:#0288d1;stroke-width:0.11338583;stroke-miterlimit:4;stroke-dasharray:none;stroke-opacity:1"
         id="path985"
         inkscape:connector-curvature="0" />
      <path
         d="m 266.34898,143.42511 h -0.96354 v -8 h 0.96354 z"
         style="font-style:normal;font-variant:normal;font-weight:normal;font-stretch:normal;font-size:10.66666698px;font-family:Roboto;-inkscape-font-specification:Roboto;letter-spacing:1.73000002px;fill:#03a9f4;fill-opacity:1;stroke:#0288d1;stroke-width:0.11338583;stroke-miterlimit:4;stroke-dasharray:none;stroke-opacity:1"
         id="path987"
         inkscape:connector-curvature="0" />
      <path
         d="m 270.92273,136.42511 v 1.36458 h 1.05208 v 0.74479 h -1.05208 v 3.4948 q 0,0.33854 0.14063,0.51041 0.14062,0.16667 0.47916,0.16667 0.16667,0 0.45834,-0.0625 v 0.78125 q -0.38021,0.10417 -0.73959,0.10417 -0.64583,0 -0.97396,-0.39063 -0.32812,-0.39062 -0.32812,-1.10937 v -3.4948 h -1.02604 v -0.74479 h 1.02604 v -1.36458 z"
         style="font-style:normal;font-variant:normal;font-weight:normal;font-stretch:normal;font-size:10.66666698px;font-family:Roboto;-inkscape-font-specification:Roboto;letter-spacing:1.73000002px;fill:#03a9f4;fill-opacity:1;stroke:#0288d1;stroke-width:0.11338583;stroke-miterlimit:4;stroke-dasharray:none;stroke-opacity:1"
         id="path989"
         inkscape:connector-curvature="0" />
      <path
         d="m 275.87148,143.42511 h -0.96354 v -5.63542 h 0.96354 z m -1.04167,-7.13021 q 0,-0.23437 0.14063,-0.39583 0.14583,-0.16146 0.42708,-0.16146 0.28125,0 0.42709,0.16146 0.14583,0.16146 0.14583,0.39583 0,0.23438 -0.14583,0.39063 -0.14584,0.15625 -0.42709,0.15625 -0.28125,0 -0.42708,-0.15625 -0.14063,-0.15625 -0.14063,-0.39063 z"
         style="font-style:normal;font-variant:normal;font-weight:normal;font-stretch:normal;font-size:10.66666698px;font-family:Roboto;-inkscape-font-specification:Roboto;letter-spacing:1.73000002px;fill:#03a9f4;fill-opacity:1;stroke:#0288d1;stroke-width:0.11338583;stroke-miterlimit:4;stroke-dasharray:none;stroke-opacity:1"
         id="path991"
         inkscape:connector-curvature="0" />
      <path
         d="m 280.0494,137.78969 0.0312,0.70834 q 0.64583,-0.8125 1.6875,-0.8125 1.78646,0 1.80208,2.01562 v 3.72396 h -0.96354 v -3.72917 q -0.005,-0.60937 -0.28125,-0.90104 -0.27084,-0.29167 -0.84896,-0.29167 -0.46875,0 -0.82292,0.25 -0.35416,0.25 -0.55208,0.65625 v 4.01563 h -0.96354 v -5.63542 z"
         style="font-style:normal;font-variant:normal;font-weight:normal;font-stretch:normal;font-size:10.66666698px;font-family:Roboto;-inkscape-font-specification:Roboto;letter-spacing:1.73000002px;fill:#03a9f4;fill-opacity:1;stroke:#0288d1;stroke-width:0.11338583;stroke-miterlimit:4;stroke-dasharray:none;stroke-opacity:1"
         id="path993"
         inkscape:connector-curvature="0" />
      <path
         d="m 286.53461,140.56053 q 0,-1.31771 0.60937,-2.09375 0.60938,-0.78125 1.61459,-0.78125 1.03125,0 1.60937,0.72916 l 0.0469,-0.625 h 0.8802 v 5.5 q 0,1.09375 -0.65104,1.72396 -0.64583,0.63021 -1.73958,0.63021 -0.60938,0 -1.19271,-0.26042 -0.58333,-0.26041 -0.89062,-0.71354 l 0.5,-0.57812 q 0.61979,0.76562 1.51562,0.76562 0.70313,0 1.09375,-0.39583 0.39583,-0.39584 0.39583,-1.11459 v -0.48437 q -0.57812,0.66667 -1.57812,0.66667 -0.98958,0 -1.60417,-0.79688 -0.60937,-0.79687 -0.60937,-2.17187 z m 0.96875,0.10937 q 0,0.95313 0.39062,1.5 0.39063,0.54167 1.09375,0.54167 0.91146,0 1.33854,-0.82813 v -2.57291 q -0.4427,-0.8073 -1.32812,-0.8073 -0.70313,0 -1.09896,0.54688 -0.39583,0.54687 -0.39583,1.61979 z"
         style="font-style:normal;font-variant:normal;font-weight:normal;font-stretch:normal;font-size:10.66666698px;font-family:Roboto;-inkscape-font-specification:Roboto;letter-spacing:1.73000002px;fill:#03a9f4;fill-opacity:1;stroke:#0288d1;stroke-width:0.11338583;stroke-miterlimit:4;stroke-dasharray:none;stroke-opacity:1"
         id="path995"
         inkscape:connector-curvature="0" />
    </g>
    <path
       style="color:#000000;font-style:normal;font-variant:normal;font-weight:normal;font-stretch:normal;font-size:medium;line-height:normal;font-family:sans-serif;font-variant-ligatures:normal;font-variant-position:normal;font-variant-caps:normal;font-variant-numeric:normal;font-variant-alternates:normal;font-feature-settings:normal;text-indent:0;text-align:start;text-decoration:none;text-decoration-line:none;text-decoration-style:solid;text-decoration-color:#000000;letter-spacing:normal;word-spacing:normal;text-transform:none;writing-mode:lr-tb;direction:ltr;text-orientation:mixed;dominant-baseline:auto;baseline-shift:baseline;text-anchor:start;white-space:normal;shape-padding:0;clip-rule:nonzero;display:inline;overflow:visible;visibility:visible;opacity:1;isolation:auto;mix-blend-mode:normal;color-interpolation:sRGB;color-interpolation-filters:linearRGB;solid-color:#000000;solid-opacity:1;vector-effect:none;fill:#1e88e5;fill-opacity:1;fill-rule:nonzero;stroke:#1565c0;stroke-width:0.02989792;stroke-linecap:butt;stroke-linejoin:miter;stroke-miterlimit:4;stroke-dasharray:none;stroke-dashoffset:0;stroke-opacity:1;color-rendering:auto;image-rendering:auto;shape-rendering:auto;text-rendering:auto;enable-background:accumulate"
       d="m 137.41961,150.65172 c -0.62214,0.005 -1.28725,0.18686 -1.79111,0.56327 -0.77496,0.57895 -1.23555,1.21315 -1.21594,2.54765 0.0201,1.36885 1.03365,2.24508 1.9792,2.54248 0.23389,0.0736 0.45879,0.1174 0.6749,0.13539 0.081,0.007 0.16067,0.0101 0.23926,0.01 v -5.3e-4 c 0.55013,-0.002 1.04078,-0.17231 1.47691,-0.43976 0.72819,-0.44656 1.23393,-1.05964 1.7818,-1.62885 0.83799,-0.8706 1.5753,-1.71981 2.2407,-2.35748 v 0.58394 c -0.16851,0.046 -0.29456,0.19959 -0.29456,0.38189 0,0.21808 0.17931,0.3974 0.39739,0.39739 0.21808,1e-5 0.39739,-0.17931 0.39739,-0.39739 0,-0.1823 -0.12604,-0.33587 -0.29455,-0.38189 v -0.77566 c 0.12518,-0.11371 0.24879,-0.22183 0.36897,-0.31677 0.78548,-0.62058 1.87585,-0.64605 2.47427,-0.46716 0.46914,0.14024 0.82919,0.35952 1.11621,0.65474 v 2.76469 l -0.84905,-0.84853 v -1.21026 c 0.16244,-0.05 0.28267,-0.20031 0.28267,-0.37827 0,-0.21808 -0.17931,-0.39688 -0.39739,-0.39688 -0.21808,0 -0.39687,0.1788 -0.39687,0.39688 0,0.1651 0.10259,0.30774 0.24701,0.36742 v 1.33069 l 0.40307,0.40307 h -1.78645 c -0.0552,-0.1533 -0.20109,-0.26458 -0.37259,-0.26458 -0.21808,0 -0.39739,0.1788 -0.39739,0.39687 0,0.21808 0.17931,0.3974 0.39739,0.3974 0.1715,0 0.3174,-0.11167 0.37259,-0.2651 h 2.03605 v -0.0155 l 0.46096,0.46095 v 0.50333 c -0.17988,0.18566 -0.38789,0.35534 -0.62684,0.49971 -0.78969,0.47713 -1.99341,0.37613 -2.76365,-0.13849 h 1.46192 c 0.0582,0.14741 0.20129,0.25321 0.36845,0.25321 0.21808,0 0.3974,-0.17931 0.3974,-0.39739 0,-0.21807 -0.17932,-0.39739 -0.3974,-0.39739 -0.17584,0 -0.32406,0.1175 -0.37568,0.27699 h -1.78336 c -0.60771,-0.54123 -0.77168,-0.72559 -1.10536,-1.08418 0.0305,-0.0561 0.0496,-0.1192 0.0496,-0.18706 0,-0.21808 -0.17931,-0.3974 -0.39739,-0.3974 -0.21808,0 -0.39739,0.17932 -0.39739,0.3974 0,0.21807 0.17931,0.39739 0.39739,0.39739 0.0571,0 0.11096,-0.0131 0.1602,-0.0351 0.35731,0.38392 0.50431,0.55784 1.23248,1.20096 0.83977,0.74168 2.29774,0.92841 3.2861,0.33124 0.9633,-0.58202 1.50899,-1.53712 1.51309,-2.50062 0.002,-0.4955 -0.20059,-1.20458 -0.55914,-1.70894 -0.35114,-0.49394 -0.83835,-0.85492 -1.50327,-1.05368 -0.68351,-0.20433 -1.83598,-0.17631 -2.70732,0.51211 -0.84709,0.66926 -1.76178,1.76836 -2.84066,2.88923 -0.46393,0.48199 -0.88377,0.97099 -1.40611,1.36374 l -0.91261,-0.87023 0.83613,-0.48214 c 0.0682,0.0548 0.15356,0.0889 0.24701,0.0889 0.21808,0 0.39739,-0.17931 0.39739,-0.39739 0,-0.21808 -0.17931,-0.3974 -0.39739,-0.39739 -0.21808,-1e-5 -0.39739,0.17931 -0.39739,0.39739 0,0.0449 0.009,0.0873 0.0233,0.12764 l -0.91985,0.53123 h -0.94309 v -0.88883 c 0.16851,-0.046 0.29455,-0.19959 0.29455,-0.38189 0,-0.21808 -0.17931,-0.39739 -0.39739,-0.39739 -0.21807,0 -0.39739,0.17931 -0.39739,0.39739 0,0.1823 0.12605,0.33587 0.29456,0.38189 v 0.88883 h -1.26246 v -2.86029 c 0.10545,-0.0952 0.21735,-0.18883 0.34365,-0.28318 0.6299,-0.47058 1.61095,-0.60068 2.30632,-0.4346 v 1.00821 h -1.48105 c -0.0451,-0.1698 -0.19918,-0.29714 -0.3824,-0.29714 -0.21808,-1e-5 -0.39739,0.17931 -0.39739,0.39739 0,0.21807 0.17931,0.39739 0.39739,0.39739 0.17887,0 0.32963,-0.12154 0.37879,-0.28526 h 1.69705 v -1.15496 c 0.0165,0.006 0.0357,0.01 0.0517,0.016 0.68391,0.27646 1.08301,0.78366 1.86397,1.6216 -0.0406,0.0623 -0.0646,0.13626 -0.0646,0.21549 0,0.21808 0.17931,0.3974 0.39739,0.3974 0.21808,0 0.39739,-0.17932 0.39739,-0.3974 0,-0.21807 -0.17931,-0.39739 -0.39739,-0.39739 -0.0453,0 -0.088,0.01 -0.12867,0.0238 -0.78409,-0.84048 -1.18801,-1.38479 -1.97197,-1.7017 -0.29838,-0.12061 -0.65612,-0.18128 -1.0294,-0.17829 z m 8.58707,1.20199 c 0.0992,0 0.17725,0.0776 0.17725,0.17673 0,0.0992 -0.0781,0.17725 -0.17725,0.17725 -0.0992,0 -0.17725,-0.0781 -0.17725,-0.17725 0,-0.0992 0.0781,-0.17673 0.17725,-0.17673 z m -9.78131,0.0641 c 0.0992,0 0.17724,0.0781 0.17724,0.17725 0,0.0992 -0.0781,0.17725 -0.17724,0.17725 -0.0992,0 -0.17725,-0.0781 -0.17725,-0.17725 0,-0.0992 0.0781,-0.17725 0.17725,-0.17725 z m -1.03457,0.0424 v 3.23701 c -0.30519,-0.37586 -0.51287,-0.85643 -0.52141,-1.43816 -0.0129,-0.8754 0.1688,-1.38441 0.52141,-1.79885 z m 12.00495,0.0109 c 0.008,0.0115 0.0176,0.022 0.0258,0.0336 0.31706,0.44599 0.51345,1.13929 0.5116,1.55908 -0.002,0.5306 -0.18926,1.06306 -0.53743,1.52084 z m -6.6461,0.75706 c 0.0992,0 0.17725,0.0781 0.17725,0.17725 0,0.0992 -0.0781,0.17725 -0.17725,0.17725 -0.0992,0 -0.17725,-0.0781 -0.17725,-0.17725 0,-0.0992 0.0781,-0.17725 0.17725,-0.17725 z m 2.35851,0.0842 c 0.0992,0 0.17725,0.0781 0.17725,0.17725 0,0.0992 -0.0781,0.17725 -0.17725,0.17725 -0.0992,0 -0.17725,-0.0781 -0.17725,-0.17725 0,-0.0992 0.0781,-0.17725 0.17725,-0.17725 z m -6.10402,0.30437 c 0.0992,0 0.17725,0.0781 0.17725,0.17725 0,0.0992 -0.0781,0.17725 -0.17725,0.17725 -0.0992,0 -0.17725,-0.0781 -0.17725,-0.17725 0,-0.0992 0.0781,-0.17725 0.17725,-0.17725 z m 2.33991,0.61185 c 0.0992,0 0.17725,0.0781 0.17725,0.17725 0,0.0992 -0.0781,0.17725 -0.17725,0.17725 -0.0992,0 -0.17725,-0.0781 -0.17725,-0.17725 0,-0.0992 0.0781,-0.17725 0.17725,-0.17725 z m 2.6541,0.26459 c 0.0992,0 0.17725,0.0781 0.17725,0.17725 0,0.0992 -0.0781,0.17725 -0.17725,0.17725 -0.0992,0 -0.17725,-0.0781 -0.17725,-0.17725 0,-0.0992 0.0781,-0.17725 0.17725,-0.17725 z m 2.3027,0.0935 c 0.0992,0 0.17725,0.0781 0.17725,0.17725 0,0.0992 -0.0781,0.17725 -0.17725,0.17725 -0.0992,0 -0.17725,-0.0781 -0.17725,-0.17725 0,-0.0992 0.0781,-0.17726 0.17725,-0.17725 z m -8.662,0.69815 h 2.39623 l 0.9555,0.91157 c -0.0471,0.0317 -0.0931,0.0645 -0.14211,0.0946 -0.61776,0.37884 -1.31107,0.54192 -2.17971,0.26872 -0.35548,-0.11181 -0.72123,-0.31356 -1.02991,-0.59842 z m 9.97148,0.59996 c 0.0992,0 0.17726,0.0781 0.17726,0.17725 0,0.0992 -0.0781,0.17725 -0.17726,0.17725 -0.0992,0 -0.17725,-0.0781 -0.17725,-0.17725 0,-0.0992 0.0781,-0.17725 0.17725,-0.17725 z"
       id="path4768-37"
       inkscape:connector-curvature="0" />
  </g>
</svg>
