<?xml version="1.0" encoding="UTF-8" standalone="no"?>
<!-- Created with Inkscape (http://www.inkscape.org/) -->

<svg
   xmlns:dc="http://purl.org/dc/elements/1.1/"
   xmlns:cc="http://creativecommons.org/ns#"
   xmlns:rdf="http://www.w3.org/1999/02/22-rdf-syntax-ns#"
   xmlns:svg="http://www.w3.org/2000/svg"
   xmlns="http://www.w3.org/2000/svg"
   xmlns:sodipodi="http://sodipodi.sourceforge.net/DTD/sodipodi-0.dtd"
   xmlns:inkscape="http://www.inkscape.org/namespaces/inkscape"
   width="52mm"
   height="13mm"
   viewBox="0 0 52 13.000001"
   version="1.1"
   id="svg7257"
   inkscape:version="0.92.3 (2405546, 2018-03-11)"
   sodipodi:docname="cyberloop-consulting-brand-with-logo.svg"
   inkscape:export-filename="/data/Workspaces/SELF/Logo/cyberloop-consulting-brand-with-logo.png"
   inkscape:export-xdpi="1219.2"
   inkscape:export-ydpi="1219.2">
  <defs
     id="defs7251" />
  <sodipodi:namedview
     id="base"
     pagecolor="#ffffff"
     bordercolor="#666666"
     borderopacity="1.0"
     inkscape:pageopacity="0.0"
     inkscape:pageshadow="2"
     inkscape:zoom="8"
     inkscape:cx="97.258921"
     inkscape:cy="25.768625"
     inkscape:document-units="mm"
     inkscape:current-layer="layer1"
     showgrid="false"
     fit-margin-top="0"
     fit-margin-left="0"
     fit-margin-right="0"
     fit-margin-bottom="0"
     inkscape:window-width="2736"
     inkscape:window-height="1732"
     inkscape:window-x="-12"
     inkscape:window-y="-12"
     inkscape:window-maximized="1" />
  <metadata
     id="metadata7254">
    <rdf:RDF>
      <cc:Work
         rdf:about="">
        <dc:format>image/svg+xml</dc:format>
        <dc:type
           rdf:resource="http://purl.org/dc/dcmitype/StillImage" />
        <dc:title></dc:title>
      </cc:Work>
    </rdf:RDF>
  </metadata>
  <g
     inkscape:label="Layer 1"
     inkscape:groupmode="layer"
     id="layer1"
     transform="translate(-101.85989,-149.45714)">
    <path
       sodipodi:type="inkscape:offset"
       inkscape:radius="0.059479393"
       inkscape:original="M 105.5293 150.41602 C 104.78255 150.46092 104.06101 150.77369 103.51562 151.28516 C 102.75261 151.99506 102.3651 153.08744 102.5332 154.11914 C 102.64928 154.91059 103.08862 155.63507 103.70312 156.14062 C 104.47428 156.76486 105.54442 156.99879 106.50586 156.75 C 107.01872 156.62086 107.50251 156.35595 107.88281 155.99023 C 107.95851 155.86635 107.77529 155.72635 107.67578 155.83203 C 107.03324 156.40989 106.1351 156.68494 105.2793 156.54883 C 104.75965 156.47433 104.26183 156.24495 103.85352 155.91797 C 103.20186 155.37848 102.77505 154.56285 102.76172 153.71094 C 102.73582 152.86982 103.09643 152.03079 103.71484 151.46289 C 104.18644 151.03565 104.78828 150.74764 105.42578 150.69336 C 106.24554 150.59686 107.07588 150.90978 107.69727 151.4375 C 107.83163 151.5139 107.96484 151.30303 107.83789 151.21484 C 107.20234 150.67558 106.36638 150.36311 105.5293 150.41602 z "
       style="color:#000000;font-style:normal;font-variant:normal;font-weight:normal;font-stretch:normal;font-size:medium;line-height:normal;font-family:sans-serif;font-variant-ligatures:normal;font-variant-position:normal;font-variant-caps:normal;font-variant-numeric:normal;font-variant-alternates:normal;font-feature-settings:normal;text-indent:0;text-align:start;text-decoration:none;text-decoration-line:none;text-decoration-style:solid;text-decoration-color:#000000;letter-spacing:normal;word-spacing:normal;text-transform:none;writing-mode:lr-tb;direction:ltr;text-orientation:mixed;dominant-baseline:auto;baseline-shift:baseline;text-anchor:start;white-space:normal;shape-padding:0;clip-rule:nonzero;display:inline;overflow:visible;visibility:visible;opacity:1;isolation:auto;mix-blend-mode:normal;color-interpolation:sRGB;color-interpolation-filters:linearRGB;solid-color:#000000;solid-opacity:1;vector-effect:none;fill:#1e88e5;fill-opacity:1;fill-rule:nonzero;stroke:#1565c0;stroke-width:0.02989792;stroke-linecap:round;stroke-linejoin:miter;stroke-miterlimit:4;stroke-dasharray:none;stroke-dashoffset:0;stroke-opacity:1;color-rendering:auto;image-rendering:auto;shape-rendering:auto;text-rendering:auto;enable-background:accumulate"
       id="path4785"
       d="m 105.8457,150.35352 c -0.10626,-0.005 -0.21352,-0.003 -0.32031,0.004 -0.76098,0.0458 -1.49512,0.36367 -2.05078,0.88477 -0.77794,0.72378 -1.17151,1.83412 -1,2.88672 0.11887,0.80687 0.56661,1.54457 1.19141,2.05859 0.78642,0.6366 1.87491,0.87288 2.85546,0.61914 l -0.002,0.002 c 0.52295,-0.13168 1.01618,-0.40214 1.4043,-0.77539 a 0.05948534,0.05948534 0 0 0 0.01,-0.0117 c 0.0271,-0.0443 0.0316,-0.0954 0.0195,-0.13867 -0.0121,-0.0432 -0.0386,-0.0798 -0.0723,-0.10547 -0.0336,-0.0257 -0.0743,-0.0427 -0.11914,-0.043 -0.0449,-3e-4 -0.0933,0.0188 -0.12891,0.0566 -0.62875,0.56321 -1.5084,0.83207 -2.34375,0.69921 a 0.05948534,0.05948534 0 0 0 -0.002,0 c -0.50796,-0.0728 -0.99599,-0.29842 -1.39649,-0.61914 v 0.002 c -0.6388,-0.52885 -1.05728,-1.32947 -1.07031,-2.16211 a 0.05948534,0.05948534 0 0 0 0,-0.002 c -0.0253,-0.82292 0.33015,-1.64717 0.93555,-2.20312 0.46249,-0.41826 1.05376,-0.70094 1.67578,-0.75391 a 0.05948534,0.05948534 0 0 0 0.002,0 c 0.80031,-0.0942 1.61431,0.21217 2.22461,0.73047 a 0.05948534,0.05948534 0 0 0 0.01,0.006 c 0.0475,0.027 0.10239,0.0312 0.14648,0.0156 0.0441,-0.0156 0.0781,-0.0468 0.10157,-0.084 0.0235,-0.0372 0.0361,-0.0824 0.0312,-0.1289 -0.005,-0.0465 -0.0313,-0.0938 -0.0762,-0.125 -0.5649,-0.47738 -1.28389,-0.78036 -2.02539,-0.8125 z" />
    <path
       style="color:#000000;font-style:normal;font-variant:normal;font-weight:normal;font-stretch:normal;font-size:medium;line-height:normal;font-family:sans-serif;font-variant-ligatures:normal;font-variant-position:normal;font-variant-caps:normal;font-variant-numeric:normal;font-variant-alternates:normal;font-feature-settings:normal;text-indent:0;text-align:start;text-decoration:none;text-decoration-line:none;text-decoration-style:solid;text-decoration-color:#000000;letter-spacing:normal;word-spacing:normal;text-transform:none;writing-mode:lr-tb;direction:ltr;text-orientation:mixed;dominant-baseline:auto;baseline-shift:baseline;text-anchor:start;white-space:normal;shape-padding:0;clip-rule:nonzero;display:inline;overflow:visible;visibility:visible;opacity:1;isolation:auto;mix-blend-mode:normal;color-interpolation:sRGB;color-interpolation-filters:linearRGB;solid-color:#000000;solid-opacity:1;vector-effect:none;fill:#03a9f4;fill-opacity:1;fill-rule:nonzero;stroke:#0288d1;stroke-width:0.03;stroke-linecap:round;stroke-linejoin:round;stroke-miterlimit:4;stroke-dasharray:none;stroke-dashoffset:0;stroke-opacity:1;color-rendering:auto;image-rendering:auto;shape-rendering:auto;text-rendering:auto;enable-background:accumulate"
       d="m 108.25964,150.4165 c -0.12932,0.002 -0.16582,0.1764 -0.0713,0.25121 0.94448,1.30171 1.88896,2.60342 2.83344,3.90512 0.004,0.72689 -0.007,1.45511 0.005,2.18117 0.0339,0.14503 0.26974,0.10937 0.25923,-0.0392 -0.002,-0.73699 0.004,-1.47445 -0.003,-2.21116 -0.11146,-0.20109 -0.2694,-0.37763 -0.39848,-0.56939 -0.84347,-1.16014 -1.68216,-2.3242 -2.52862,-3.4819 -0.0257,-0.0244 -0.0615,-0.0377 -0.0969,-0.0359 z m 4.76663,0.005 c -0.13823,0.018 -0.17105,0.1871 -0.255,0.27705 -0.5253,0.77771 -1.0506,1.55542 -1.57589,2.33312 -0.61821,-0.85162 -1.23098,-1.70771 -1.85257,-2.55655 -0.10767,-0.11081 -0.29418,0.0547 -0.19692,0.17479 0.65528,0.90257 1.30496,1.80976 1.96373,2.70946 0.0961,0.0894 0.21478,-0.009 0.25407,-0.10492 0.59501,-0.88317 1.19533,-1.76318 1.78703,-2.64831 0.0398,-0.0847 -0.031,-0.18968 -0.12445,-0.18464 z"
       id="path4798"
       inkscape:connector-curvature="0" />
    <path
       style="color:#000000;font-style:normal;font-variant:normal;font-weight:normal;font-stretch:normal;font-size:medium;line-height:normal;font-family:sans-serif;font-variant-ligatures:normal;font-variant-position:normal;font-variant-caps:normal;font-variant-numeric:normal;font-variant-alternates:normal;font-feature-settings:normal;text-indent:0;text-align:start;text-decoration:none;text-decoration-line:none;text-decoration-style:solid;text-decoration-color:#000000;letter-spacing:normal;word-spacing:normal;text-transform:none;writing-mode:lr-tb;direction:ltr;text-orientation:mixed;dominant-baseline:auto;baseline-shift:baseline;text-anchor:start;white-space:normal;shape-padding:0;clip-rule:nonzero;display:inline;overflow:visible;visibility:visible;opacity:1;isolation:auto;mix-blend-mode:normal;color-interpolation:sRGB;color-interpolation-filters:linearRGB;solid-color:#000000;solid-opacity:1;vector-effect:none;fill:#1e88e5;fill-opacity:1;fill-rule:nonzero;stroke:#1565c0;stroke-width:0.03;stroke-linecap:round;stroke-linejoin:round;stroke-miterlimit:4;stroke-dasharray:none;stroke-dashoffset:0;stroke-opacity:1;color-rendering:auto;image-rendering:auto;shape-rendering:auto;text-rendering:auto;enable-background:accumulate"
       d="m 103.09984,160.0495 v 0.2589 h 31.92147 v -0.2589 z"
       id="path4800"
       inkscape:connector-curvature="0" />
    <path
       style="color:#000000;font-style:normal;font-variant:normal;font-weight:normal;font-stretch:normal;font-size:medium;line-height:normal;font-family:sans-serif;font-variant-ligatures:normal;font-variant-position:normal;font-variant-caps:normal;font-variant-numeric:normal;font-variant-alternates:normal;font-feature-settings:normal;text-indent:0;text-align:start;text-decoration:none;text-decoration-line:none;text-decoration-style:solid;text-decoration-color:#000000;letter-spacing:normal;word-spacing:normal;text-transform:none;writing-mode:lr-tb;direction:ltr;text-orientation:mixed;dominant-baseline:auto;baseline-shift:baseline;text-anchor:start;white-space:normal;shape-padding:0;clip-rule:nonzero;display:inline;overflow:visible;visibility:visible;opacity:1;isolation:auto;mix-blend-mode:normal;color-interpolation:sRGB;color-interpolation-filters:linearRGB;solid-color:#000000;solid-opacity:1;vector-effect:none;fill:#03a9f4;fill-opacity:1;fill-rule:nonzero;stroke:#0288d1;stroke-width:0.03;stroke-linecap:round;stroke-linejoin:round;stroke-miterlimit:4;stroke-dasharray:none;stroke-dashoffset:0;stroke-opacity:1;color-rendering:auto;image-rendering:auto;shape-rendering:auto;text-rendering:auto;enable-background:accumulate"
       d="m 114.60654,150.4134 c -0.13676,2.6e-4 -0.14315,0.15735 -0.13178,0.25802 0.002,2.02078 -0.003,4.04192 0.002,6.06249 0.0196,0.14996 0.26215,0.13416 0.26213,-0.0171 5.3e-4,-2.01295 6e-5,-4.0259 1.9e-4,-6.03885 0.0757,0 0.3015,0.003 0.41376,0.003 0.11251,0 0.11083,-0.0127 0.10817,0.0925 -2.6e-4,1.98525 0.004,3.96996 5.3e-4,5.95524 0.0248,0.17061 0.24162,0.1106 0.35704,0.12132 0.57858,-0.006 1.15824,0.0266 1.73599,-0.006 0.84058,-0.0602 1.54532,-0.80313 1.60317,-1.63648 0.10428,-0.82715 -0.49843,-1.67664 -1.31201,-1.85226 0.82065,-0.26538 1.17131,-1.34455 0.76195,-2.0776 -0.26914,-0.54826 -0.87534,-0.89891 -1.48496,-0.85776 -0.77217,-0.004 -1.54461,-0.0112 -2.3166,-0.007 z m 0.91932,0.26613 c 0.56732,0.005 1.13563,-0.0107 1.70222,0.0202 0.71155,0.10208 1.24484,0.87739 1.0482,1.57688 -0.0902,0.45298 -0.46909,0.79912 -0.90473,0.92023 -0.24757,0.10295 -0.51829,0.0465 -0.77849,0.0609 h -1.0672 z m 0.003,2.84272 c 0.55565,10e-4 1.11149,-0.002 1.66701,0.002 0.56772,0.0295 1.12754,0.363 1.36019,0.89169 0.35583,0.6876 0.0386,1.60435 -0.62698,1.97748 -0.50197,0.29588 -1.10433,0.17342 -1.65747,0.19593 -0.24428,-0.01 -0.52895,0.0185 -0.74584,-0.0208 0.001,-1.01537 0.002,-2.03075 0.003,-3.04612 z"
       id="path4850"
       inkscape:connector-curvature="0"
       sodipodi:nodetypes="cccccsccccccccccccccccccccccccc" />
    <path
       style="color:#000000;font-style:normal;font-variant:normal;font-weight:normal;font-stretch:normal;font-size:medium;line-height:normal;font-family:sans-serif;font-variant-ligatures:normal;font-variant-position:normal;font-variant-caps:normal;font-variant-numeric:normal;font-variant-alternates:normal;font-feature-settings:normal;text-indent:0;text-align:start;text-decoration:none;text-decoration-line:none;text-decoration-style:solid;text-decoration-color:#000000;letter-spacing:normal;word-spacing:normal;text-transform:none;writing-mode:lr-tb;direction:ltr;text-orientation:mixed;dominant-baseline:auto;baseline-shift:baseline;text-anchor:start;white-space:normal;shape-padding:0;clip-rule:nonzero;display:inline;overflow:visible;visibility:visible;opacity:1;isolation:auto;mix-blend-mode:normal;color-interpolation:sRGB;color-interpolation-filters:linearRGB;solid-color:#000000;solid-opacity:1;vector-effect:none;fill:#03a9f4;fill-opacity:1;fill-rule:nonzero;stroke:#0288d1;stroke-width:0.03;stroke-linecap:round;stroke-linejoin:round;stroke-miterlimit:4;stroke-dasharray:none;stroke-dashoffset:0;stroke-opacity:1;color-rendering:auto;image-rendering:auto;shape-rendering:auto;text-rendering:auto;enable-background:accumulate"
       d="m 120.54416,150.39686 c -0.13563,-2.6e-4 -0.14415,0.15497 -0.13229,0.25525 0.002,2.02601 -0.004,4.05195 0.003,6.07763 0.0399,0.15579 0.22858,0.0941 0.34482,0.10609 1.24511,-10e-4 2.49057,0.004 3.73546,-7.9e-4 0.14996,-0.0196 0.13416,-0.26215 -0.0171,-0.26213 -1.26708,-0.001 -2.53418,-0.001 -3.80126,-0.002 0,-0.78909 0,-1.5782 0,-2.36729 1.00643,-5.3e-4 2.01321,0.005 3.01942,2.6e-4 0.14996,-0.0196 0.13416,-0.26215 -0.0171,-0.26212 -1.00078,-10e-4 -2.00156,-0.002 -3.00234,-0.003 0,-0.17209 0,-0.34417 0,-0.51625 0.99385,-0.002 1.98806,0.003 2.98169,-0.002 0.14997,-0.0196 0.13417,-0.26215 -0.0171,-0.26213 -0.9882,-5.3e-4 -1.97641,-6e-5 -2.96461,-1.9e-4 0,-0.83233 0,-1.66467 0,-2.49701 1.27256,-0.001 2.54547,0.004 3.81782,-5.2e-4 0.15,-0.0193 0.13465,-0.2619 -0.0166,-0.26216 -1.31112,-0.001 -2.6223,-0.001 -3.93347,-0.002 z"
       id="path4859"
       inkscape:connector-curvature="0" />
    <path
       style="color:#000000;font-style:normal;font-variant:normal;font-weight:normal;font-stretch:normal;font-size:medium;line-height:normal;font-family:sans-serif;font-variant-ligatures:normal;font-variant-position:normal;font-variant-caps:normal;font-variant-numeric:normal;font-variant-alternates:normal;font-feature-settings:normal;text-indent:0;text-align:start;text-decoration:none;text-decoration-line:none;text-decoration-style:solid;text-decoration-color:#000000;letter-spacing:normal;word-spacing:normal;text-transform:none;writing-mode:lr-tb;direction:ltr;text-orientation:mixed;dominant-baseline:auto;baseline-shift:baseline;text-anchor:start;white-space:normal;shape-padding:0;clip-rule:nonzero;display:inline;overflow:visible;visibility:visible;opacity:1;isolation:auto;mix-blend-mode:normal;color-interpolation:sRGB;color-interpolation-filters:linearRGB;solid-color:#000000;solid-opacity:1;vector-effect:none;fill:#03a9f4;fill-opacity:1;fill-rule:nonzero;stroke:#0288d1;stroke-width:0.03;stroke-linecap:round;stroke-linejoin:round;stroke-miterlimit:4;stroke-dasharray:none;stroke-dashoffset:0;stroke-opacity:1;color-rendering:auto;image-rendering:auto;shape-rendering:auto;text-rendering:auto;enable-background:accumulate"
       d="m 125.69785,150.4227 c -0.13406,-3e-5 -0.14383,0.15311 -0.13169,0.25273 0.003,2.0203 -2.7e-4,4.04097 0.006,6.06106 0.0199,0.14992 0.26243,0.1336 0.26209,-0.0177 -10e-4,-2.01052 -0.003,-4.02105 -0.004,-6.03157 0.0792,-0.002 0.31459,0.002 0.42485,0.003 0.1092,8e-4 0.0953,-0.0139 0.0954,0.0876 -0.002,1.98608 -0.01,3.9725 -0.008,5.95837 0.0193,0.15 0.2619,0.13465 0.26215,-0.0166 0.002,-0.86382 0.003,-1.72765 0.004,-2.59148 l 1.40095,0.002 c 0.40965,0.88642 0.81466,1.77527 1.2272,2.66017 0.079,0.12895 0.29406,0.0157 0.23239,-0.12245 -0.42291,-0.91582 -0.84064,-1.83452 -1.26781,-2.74807 -0.0912,-0.0999 -0.24381,-0.0363 -0.36243,-0.0545 -0.40993,-5.3e-4 -0.81985,-7.9e-4 -1.22978,-0.001 2.7e-4,-0.17587 7.9e-4,-0.35175 10e-4,-0.52762 0.54316,-0.006 1.08991,0.0434 1.63071,-0.0221 0.54831,-0.0667 1.02131,-0.49106 1.18613,-1.01112 0.16382,-0.56528 -0.004,-1.24128 -0.50211,-1.58589 -0.29359,-0.23291 -0.67354,-0.31175 -1.04134,-0.29327 -0.72882,-0.003 -1.45773,-7.9e-4 -2.18656,-5.3e-4 z m 0.91777,0.26458 c 0.55957,0.0119 1.12272,-0.0286 1.68003,0.0257 0.51598,0.10404 0.94273,0.57977 0.92598,1.11704 0.0318,0.47934 -0.27733,0.94987 -0.71225,1.13936 -0.4805,0.17376 -1.00115,0.10806 -1.50104,0.10673 -0.41137,-0.003 -0.38701,0.0237 -0.39704,-0.17059 0.001,-0.73941 0.003,-1.47882 0.004,-2.21823 z"
       id="path4868"
       inkscape:connector-curvature="0"
       sodipodi:nodetypes="cccccsccccccccccccccccccccccccc" />
    <path
       style="color:#000000;font-style:normal;font-variant:normal;font-weight:normal;font-stretch:normal;font-size:medium;line-height:normal;font-family:sans-serif;font-variant-ligatures:normal;font-variant-position:normal;font-variant-caps:normal;font-variant-numeric:normal;font-variant-alternates:normal;font-feature-settings:normal;text-indent:0;text-align:start;text-decoration:none;text-decoration-line:none;text-decoration-style:solid;text-decoration-color:#000000;letter-spacing:normal;word-spacing:normal;text-transform:none;writing-mode:lr-tb;direction:ltr;text-orientation:mixed;dominant-baseline:auto;baseline-shift:baseline;text-anchor:start;white-space:normal;shape-padding:0;clip-rule:nonzero;display:inline;overflow:visible;visibility:visible;opacity:1;isolation:auto;mix-blend-mode:normal;color-interpolation:sRGB;color-interpolation-filters:linearRGB;solid-color:#000000;solid-opacity:1;vector-effect:none;fill:#03a9f4;fill-opacity:1;fill-rule:nonzero;stroke:#0288d1;stroke-width:0.03;stroke-linecap:round;stroke-linejoin:round;stroke-miterlimit:4;stroke-dasharray:none;stroke-dashoffset:0;stroke-opacity:1;color-rendering:auto;image-rendering:auto;shape-rendering:auto;text-rendering:auto;enable-background:accumulate"
       d="m 130.95489,150.42167 c -0.13481,0.002 -0.14135,0.15592 -0.13024,0.25569 0.001,2.02343 -0.004,4.04731 0.002,6.07047 0.0395,0.15517 0.22714,0.0944 0.34288,0.10606 1.20717,-0.001 2.41469,0.004 3.62164,-0.001 0.14997,-0.0196 0.13416,-0.26215 -0.0171,-0.26212 -0.96546,-8e-4 -1.93093,-8e-4 -2.8964,-0.001 -0.002,-2.01998 0.003,-4.04031 -0.002,-6.06007 -0.0196,-0.14996 -0.26215,-0.13416 -0.26213,0.0171 -5.3e-4,2.01432 -6e-5,4.02866 -1.9e-4,6.04298 -0.17484,0 -0.34968,0 -0.52451,0 -0.001,-2.01997 0.004,-4.04031 -0.001,-6.06005 -0.0107,-0.0618 -0.0693,-0.10954 -0.13203,-0.10753 z"
       id="path4873"
       inkscape:connector-curvature="0" />
    <path
       style="color:#000000;font-style:normal;font-variant:normal;font-weight:normal;font-stretch:normal;font-size:medium;line-height:normal;font-family:sans-serif;font-variant-ligatures:normal;font-variant-position:normal;font-variant-caps:normal;font-variant-numeric:normal;font-variant-alternates:normal;font-feature-settings:normal;text-indent:0;text-align:start;text-decoration:none;text-decoration-line:none;text-decoration-style:solid;text-decoration-color:#000000;letter-spacing:normal;word-spacing:normal;text-transform:none;writing-mode:lr-tb;direction:ltr;text-orientation:mixed;dominant-baseline:auto;baseline-shift:baseline;text-anchor:start;white-space:normal;shape-padding:0;clip-rule:nonzero;display:inline;overflow:visible;visibility:visible;opacity:1;isolation:auto;mix-blend-mode:normal;color-interpolation:sRGB;color-interpolation-filters:linearRGB;solid-color:#000000;solid-opacity:1;vector-effect:none;fill:#03a9f4;fill-opacity:1;fill-rule:nonzero;stroke:#0288d1;stroke-width:0.03;stroke-linecap:round;stroke-linejoin:round;stroke-miterlimit:4;stroke-dasharray:none;stroke-dashoffset:0;stroke-opacity:1;color-rendering:auto;image-rendering:auto;shape-rendering:auto;text-rendering:auto;enable-background:accumulate"
       d="m 149.25248,150.41236 a 0.13251324,0.13251324 0 0 0 -0.13384,0.1323 l 0.002,6.12985 a 0.13255,0.13255 0 1 0 0.2651,0 l -0.002,-5.99653 c 0.17436,8e-4 0.34685,0.004 0.5209,0.003 v 2.71559 a 0.13251324,0.13251324 0 0 0 -5.3e-4,0.01 v 3.26596 a 0.13255,0.13255 0 1 0 0.2651,0 v -3.13366 c 0.27531,2.6e-4 0.55079,2.6e-4 0.82631,-0.001 a 0.13251324,0.13251324 0 0 0 0.003,0 c 0.45249,-0.0123 1.01564,0.0767 1.47949,-0.23926 0.51502,-0.3107 0.81846,-0.91757 0.7338,-1.51825 -0.078,-0.71731 -0.69078,-1.32232 -1.42058,-1.35289 a 0.13251324,0.13251324 0 0 0 -0.001,0 c -0.84946,-0.0292 -1.69583,-0.008 -2.53779,-0.015 z m 0.91674,0.27027 c 0.53822,-0.002 1.07776,-0.009 1.61231,0.01 0.5872,0.0252 1.1049,0.53498 1.16737,1.11776 a 0.13251324,0.13251324 0 0 0 5.3e-4,0.005 c 0.0699,0.48957 -0.18587,1.00476 -0.6103,1.25936 a 0.13251324,0.13251324 0 0 0 -0.007,0.004 c -0.35842,0.24622 -0.85272,0.18154 -1.341,0.19481 l 0.003,-5.2e-4 c -0.27484,0.001 -0.5497,0.002 -0.82476,0.002 z"
       id="path4936"
       inkscape:connector-curvature="0" />
    <g
       aria-label="Consulting"
       style="font-style:normal;font-weight:normal;font-size:40px;line-height:1.25;font-family:sans-serif;letter-spacing:0.89999998px;word-spacing:0px;display:inline;fill:#03a9f4;fill-opacity:1;stroke:#0288d1;stroke-width:0.11338583;stroke-miterlimit:4;stroke-dasharray:none;stroke-opacity:1"
       id="text4804"
       transform="matrix(0.25796885,0,0,0.26458333,77.682509,122.98284)">
      <path
         d="m 232.0896,141.01886 q -0.14062,1.20312 -0.89062,1.85937 -0.74479,0.65105 -1.98438,0.65105 -1.34375,0 -2.15625,-0.96355 -0.80729,-0.96354 -0.80729,-2.57812 v -0.72917 q 0,-1.05729 0.375,-1.85937 0.38021,-0.80209 1.07292,-1.22917 0.69271,-0.43229 1.60417,-0.43229 1.20833,0 1.9375,0.67708 0.72916,0.67188 0.84895,1.86459 h -1.0052 q -0.13021,-0.90625 -0.56771,-1.3125 -0.43229,-0.40625 -1.21354,-0.40625 -0.95834,0 -1.50521,0.70833 -0.54167,0.70833 -0.54167,2.01562 v 0.73438 q 0,1.23437 0.51563,1.96354 0.51562,0.72917 1.4427,0.72917 0.83334,0 1.27605,-0.375 0.44791,-0.38021 0.59375,-1.31771 z"
         style="font-style:normal;font-variant:normal;font-weight:normal;font-stretch:normal;font-size:10.66666698px;font-family:Roboto;-inkscape-font-specification:Roboto;letter-spacing:1.73000002px;fill:#03a9f4;fill-opacity:1;stroke:#0288d1;stroke-width:0.11338583;stroke-miterlimit:4;stroke-dasharray:none;stroke-opacity:1"
         id="path977"
         inkscape:connector-curvature="0" />
      <path
         d="m 234.77273,140.55532 q 0,-0.82813 0.32292,-1.48959 0.32812,-0.66145 0.90625,-1.02083 0.58333,-0.35937 1.32812,-0.35937 1.15104,0 1.85938,0.79687 0.71354,0.79688 0.71354,2.11979 v 0.0677 q 0,0.82292 -0.31771,1.47917 -0.3125,0.65104 -0.90104,1.01562 -0.58334,0.36459 -1.34375,0.36459 -1.14584,0 -1.85938,-0.79688 -0.70833,-0.79687 -0.70833,-2.10937 z m 0.96875,0.11458 q 0,0.9375 0.43229,1.50521 0.4375,0.56771 1.16667,0.56771 0.73437,0 1.16666,-0.57292 0.4323,-0.57812 0.4323,-1.61458 0,-0.92709 -0.44271,-1.5 -0.4375,-0.57813 -1.16667,-0.57813 -0.71354,0 -1.15104,0.56771 -0.4375,0.56771 -0.4375,1.625 z"
         style="font-style:normal;font-variant:normal;font-weight:normal;font-stretch:normal;font-size:10.66666698px;font-family:Roboto;-inkscape-font-specification:Roboto;letter-spacing:1.73000002px;fill:#03a9f4;fill-opacity:1;stroke:#0288d1;stroke-width:0.11338583;stroke-miterlimit:4;stroke-dasharray:none;stroke-opacity:1"
         id="path979"
         inkscape:connector-curvature="0" />
      <path
         d="m 243.75273,137.78969 0.0312,0.70834 q 0.64583,-0.8125 1.6875,-0.8125 1.78646,0 1.80208,2.01562 v 3.72396 h -0.96354 v -3.72917 q -0.005,-0.60937 -0.28125,-0.90104 -0.27083,-0.29167 -0.84896,-0.29167 -0.46875,0 -0.82291,0.25 -0.35417,0.25 -0.55209,0.65625 v 4.01563 h -0.96354 v -5.63542 z"
         style="font-style:normal;font-variant:normal;font-weight:normal;font-stretch:normal;font-size:10.66666698px;font-family:Roboto;-inkscape-font-specification:Roboto;letter-spacing:1.73000002px;fill:#03a9f4;fill-opacity:1;stroke:#0288d1;stroke-width:0.11338583;stroke-miterlimit:4;stroke-dasharray:none;stroke-opacity:1"
         id="path981"
         inkscape:connector-curvature="0" />
      <path
         d="m 253.74835,141.93032 q 0,-0.39063 -0.29687,-0.60417 -0.29167,-0.21875 -1.02604,-0.375 -0.72917,-0.15625 -1.16146,-0.375 -0.42708,-0.21875 -0.63542,-0.52083 -0.20312,-0.30209 -0.20312,-0.71875 0,-0.69271 0.58333,-1.17188 0.58854,-0.47916 1.5,-0.47916 0.95833,0 1.55208,0.49479 0.59896,0.49479 0.59896,1.26562 h -0.96875 q 0,-0.39583 -0.33854,-0.68229 -0.33333,-0.28646 -0.84375,-0.28646 -0.52604,0 -0.82292,0.22917 -0.29687,0.22917 -0.29687,0.59896 0,0.34896 0.27604,0.52604 0.27604,0.17708 0.99479,0.33854 0.72396,0.16146 1.17188,0.38542 0.44791,0.22396 0.66146,0.54166 0.21875,0.3125 0.21875,0.76563 0,0.75521 -0.60417,1.21354 -0.60417,0.45313 -1.56771,0.45313 -0.67708,0 -1.19792,-0.23959 -0.52083,-0.23958 -0.8177,-0.66666 -0.29167,-0.4323 -0.29167,-0.9323 h 0.96354 q 0.026,0.48438 0.38542,0.77084 0.36458,0.28125 0.95833,0.28125 0.54688,0 0.875,-0.21875 0.33333,-0.22396 0.33333,-0.59375 z"
         style="font-style:normal;font-variant:normal;font-weight:normal;font-stretch:normal;font-size:10.66666698px;font-family:Roboto;-inkscape-font-specification:Roboto;letter-spacing:1.73000002px;fill:#03a9f4;fill-opacity:1;stroke:#0288d1;stroke-width:0.11338583;stroke-miterlimit:4;stroke-dasharray:none;stroke-opacity:1"
         id="path983"
         inkscape:connector-curvature="0" />
      <path
         d="m 261.17627,142.86782 q -0.5625,0.66146 -1.65104,0.66146 -0.90104,0 -1.375,-0.52084 -0.46875,-0.52604 -0.47396,-1.55208 v -3.66667 h 0.96354 v 3.64063 q 0,1.28125 1.04167,1.28125 1.10417,0 1.46875,-0.82292 v -4.09896 h 0.96354 v 5.63542 h -0.91667 z"
         style="font-style:normal;font-variant:normal;font-weight:normal;font-stretch:normal;font-size:10.66666698px;font-family:Roboto;-inkscape-font-specification:Roboto;letter-spacing:1.73000002px;fill:#03a9f4;fill-opacity:1;stroke:#0288d1;stroke-width:0.11338583;stroke-miterlimit:4;stroke-dasharray:none;stroke-opacity:1"
         id="path985"
         inkscape:connector-curvature="0" />
      <path
         d="m 266.34898,143.42511 h -0.96354 v -8 h 0.96354 z"
         style="font-style:normal;font-variant:normal;font-weight:normal;font-stretch:normal;font-size:10.66666698px;font-family:Roboto;-inkscape-font-specification:Roboto;letter-spacing:1.73000002px;fill:#03a9f4;fill-opacity:1;stroke:#0288d1;stroke-width:0.11338583;stroke-miterlimit:4;stroke-dasharray:none;stroke-opacity:1"
         id="path987"
         inkscape:connector-curvature="0" />
      <path
         d="m 270.92273,136.42511 v 1.36458 h 1.05208 v 0.74479 h -1.05208 v 3.4948 q 0,0.33854 0.14063,0.51041 0.14062,0.16667 0.47916,0.16667 0.16667,0 0.45834,-0.0625 v 0.78125 q -0.38021,0.10417 -0.73959,0.10417 -0.64583,0 -0.97396,-0.39063 -0.32812,-0.39062 -0.32812,-1.10937 v -3.4948 h -1.02604 v -0.74479 h 1.02604 v -1.36458 z"
         style="font-style:normal;font-variant:normal;font-weight:normal;font-stretch:normal;font-size:10.66666698px;font-family:Roboto;-inkscape-font-specification:Roboto;letter-spacing:1.73000002px;fill:#03a9f4;fill-opacity:1;stroke:#0288d1;stroke-width:0.11338583;stroke-miterlimit:4;stroke-dasharray:none;stroke-opacity:1"
         id="path989"
         inkscape:connector-curvature="0" />
      <path
         d="m 275.87148,143.42511 h -0.96354 v -5.63542 h 0.96354 z m -1.04167,-7.13021 q 0,-0.23437 0.14063,-0.39583 0.14583,-0.16146 0.42708,-0.16146 0.28125,0 0.42709,0.16146 0.14583,0.16146 0.14583,0.39583 0,0.23438 -0.14583,0.39063 -0.14584,0.15625 -0.42709,0.15625 -0.28125,0 -0.42708,-0.15625 -0.14063,-0.15625 -0.14063,-0.39063 z"
         style="font-style:normal;font-variant:normal;font-weight:normal;font-stretch:normal;font-size:10.66666698px;font-family:Roboto;-inkscape-font-specification:Roboto;letter-spacing:1.73000002px;fill:#03a9f4;fill-opacity:1;stroke:#0288d1;stroke-width:0.11338583;stroke-miterlimit:4;stroke-dasharray:none;stroke-opacity:1"
         id="path991"
         inkscape:connector-curvature="0" />
      <path
         d="m 280.0494,137.78969 0.0312,0.70834 q 0.64583,-0.8125 1.6875,-0.8125 1.78646,0 1.80208,2.01562 v 3.72396 h -0.96354 v -3.72917 q -0.005,-0.60937 -0.28125,-0.90104 -0.27084,-0.29167 -0.84896,-0.29167 -0.46875,0 -0.82292,0.25 -0.35416,0.25 -0.55208,0.65625 v 4.01563 h -0.96354 v -5.63542 z"
         style="font-style:normal;font-variant:normal;font-weight:normal;font-stretch:normal;font-size:10.66666698px;font-family:Roboto;-inkscape-font-specification:Roboto;letter-spacing:1.73000002px;fill:#03a9f4;fill-opacity:1;stroke:#0288d1;stroke-width:0.11338583;stroke-miterlimit:4;stroke-dasharray:none;stroke-opacity:1"
         id="path993"
         inkscape:connector-curvature="0" />
      <path
         d="m 286.53461,140.56053 q 0,-1.31771 0.60937,-2.09375 0.60938,-0.78125 1.61459,-0.78125 1.03125,0 1.60937,0.72916 l 0.0469,-0.625 h 0.8802 v 5.5 q 0,1.09375 -0.65104,1.72396 -0.64583,0.63021 -1.73958,0.63021 -0.60938,0 -1.19271,-0.26042 -0.58333,-0.26041 -0.89062,-0.71354 l 0.5,-0.57812 q 0.61979,0.76562 1.51562,0.76562 0.70313,0 1.09375,-0.39583 0.39583,-0.39584 0.39583,-1.11459 v -0.48437 q -0.57812,0.66667 -1.57812,0.66667 -0.98958,0 -1.60417,-0.79688 -0.60937,-0.79687 -0.60937,-2.17187 z m 0.96875,0.10937 q 0,0.95313 0.39062,1.5 0.39063,0.54167 1.09375,0.54167 0.91146,0 1.33854,-0.82813 v -2.57291 q -0.4427,-0.8073 -1.32812,-0.8073 -0.70313,0 -1.09896,0.54688 -0.39583,0.54687 -0.39583,1.61979 z"
         style="font-style:normal;font-variant:normal;font-weight:normal;font-stretch:normal;font-size:10.66666698px;font-family:Roboto;-inkscape-font-specification:Roboto;letter-spacing:1.73000002px;fill:#03a9f4;fill-opacity:1;stroke:#0288d1;stroke-width:0.11338583;stroke-miterlimit:4;stroke-dasharray:none;stroke-opacity:1"
         id="path995"
         inkscape:connector-curvature="0" />
    </g>
    <path
       inkscape:connector-curvature="0"
       style="color:#000000;font-style:normal;font-variant:normal;font-weight:normal;font-stretch:normal;font-size:medium;line-height:normal;font-family:sans-serif;font-variant-ligatures:normal;font-variant-position:normal;font-variant-caps:normal;font-variant-numeric:normal;font-variant-alternates:normal;font-feature-settings:normal;text-indent:0;text-align:start;text-decoration:none;text-decoration-line:none;text-decoration-style:solid;text-decoration-color:#000000;letter-spacing:normal;word-spacing:normal;text-transform:none;writing-mode:lr-tb;direction:ltr;text-orientation:mixed;dominant-baseline:auto;baseline-shift:baseline;text-anchor:start;white-space:normal;shape-padding:0;clip-rule:nonzero;display:inline;overflow:visible;visibility:visible;opacity:1;isolation:auto;mix-blend-mode:normal;color-interpolation:sRGB;color-interpolation-filters:linearRGB;solid-color:#000000;solid-opacity:1;vector-effect:none;fill:#1e88e5;fill-opacity:1;fill-rule:nonzero;stroke:#1565c0;stroke-width:0.02989792;stroke-linecap:butt;stroke-linejoin:miter;stroke-miterlimit:4;stroke-dasharray:none;stroke-dashoffset:0;stroke-opacity:1;color-rendering:auto;image-rendering:auto;shape-rendering:auto;text-rendering:auto;enable-background:accumulate"
       d="m 137.47418,150.57424 a 0.03579966,0.03579966 0 0 1 -0.0139,0.002 c -0.63121,0.005 -1.30579,0.18995 -1.82005,0.57413 -0.78084,0.58334 -1.25638,1.24242 -1.23661,2.58795 0.0204,1.3923 1.05195,2.28335 2.01383,2.58589 0.23703,0.0746 0.46529,0.12069 0.68523,0.13901 0.0827,0.007 0.16262,0.01 0.24236,0.01 0.56006,-0.002 1.06021,-0.17853 1.50223,-0.44959 0.73651,-0.45166 1.24649,-1.06912 1.79266,-1.63659 0.83907,-0.87171 1.57581,-1.72022 2.23862,-2.35541 l 0.13436,-0.12661 v 0.1571 0.0543 0.51004 a 0.01233588,0.01230645 0 0 1 0,0.002 0.01233588,0.01230645 0 0 1 0,0.002 0.01233588,0.01230645 0 0 1 0,0.002 0.01233588,0.01230645 0 0 1 -0.002,0.002 0.01233588,0.01230645 0 0 1 -0.002,0.002 0.01233588,0.01230645 0 0 1 -0.002,0 0.01233588,0.01230645 0 0 1 0,0.002 0.01233588,0.01230645 0 0 1 -0.002,0 c -0.15961,0.0437 -0.27958,0.18746 -0.27957,0.35967 0,0.20603 0.16971,0.37776 0.3762,0.37776 0.20644,0 0.37672,-0.17165 0.37672,-0.37776 0,-0.17226 -0.12043,-0.31619 -0.28009,-0.35967 a 0.01233588,0.01230645 0 0 1 -0.002,0 0.01233588,0.01230645 0 0 1 0,-0.002 0.01233588,0.01230645 0 0 1 -0.002,0 0.01233588,0.01230645 0 0 1 -5.3e-4,-5.3e-4 0.01233588,0.01230645 0 0 1 -10e-4,-0.002 0.01233588,0.01230645 0 0 1 -5.3e-4,-5.3e-4 0.01233588,0.01230645 0 0 1 -0.001,-0.002 0.01233588,0.01230645 0 0 1 0,-0.002 0.01233588,0.01230645 0 0 1 0,-0.002 0.01233588,0.01230645 0 0 1 0,-0.002 v -0.68574 -0.0439 -0.10232 l 0.0279,-0.0682 c 0.078,-0.068 0.15682,-0.1385 0.23203,-0.19792 0.76921,-0.60772 1.84752,-0.63502 2.42982,-0.46095 0.46246,0.13824 0.81438,0.35314 1.09554,0.64233 a 0.03579966,0.03579966 0 0 1 0.002,0.002 l 0.10697,0.12764 v 2.60243 a 0.01233588,0.01230645 0 0 1 0,0.002 0.01233588,0.01230645 0 0 1 0,0.002 0.01233588,0.01230645 0 0 1 0,0.002 0.01233588,0.01230645 0 0 1 -0.002,0.002 0.01233588,0.01230645 0 0 1 -0.002,0.002 0.01233588,0.01230645 0 0 1 -0.002,0 0.01233588,0.01230645 0 0 1 0,0.002 0.01233588,0.01230645 0 0 1 -0.002,0 0.01233588,0.01230645 0 0 1 -0.002,0 0.01233588,0.01230645 0 0 1 -0.002,0 0.01233588,0.01230645 0 0 1 -0.002,0 0.01233588,0.01230645 0 0 1 -0.002,0 0.01233588,0.01230645 0 0 1 -0.002,0 0.01233588,0.01230645 0 0 1 -5.3e-4,-5.3e-4 0.01233588,0.01230645 0 0 1 -0.001,-10e-4 0.01233588,0.01230645 0 0 1 -0.002,0 l -0.83044,-0.82837 a 0.01233588,0.01230645 0 0 1 0,-0.002 0.01233588,0.01230645 0 0 1 -5.3e-4,-5.3e-4 0.01233588,0.01230645 0 0 1 -0.001,-0.001 0.01233588,0.01230645 0 0 1 0,-0.002 0.01233588,0.01230645 0 0 1 0,-0.002 0.01233588,0.01230645 0 0 1 0,-0.002 v -1.18029 a 0.01233588,0.01230645 0 0 1 0,-0.002 0.01233588,0.01230645 0 0 1 0,-0.002 0.01233588,0.01230645 0 0 1 0,-0.002 0.01233588,0.01230645 0 0 1 0.002,-0.002 0.01233588,0.01230645 0 0 1 0.002,-0.002 0.01233588,0.01230645 0 0 1 0.002,0 0.01233588,0.01230645 0 0 1 0,-0.002 0.01233588,0.01230645 0 0 1 0.002,0 c 0.15396,-0.0473 0.2682,-0.18797 0.2682,-0.35605 0,-0.20583 -0.16991,-0.37746 -0.37621,-0.37776 l 5.3e-4,-0.001 c -0.2062,2.6e-4 -0.37569,0.17194 -0.37569,0.37775 0,0.15592 0.0969,0.29039 0.23358,0.34675 a 0.01233588,0.01230645 0 0 1 0.002,0 0.01233588,0.01230645 0 0 1 0.001,5.3e-4 0.01233588,0.01230645 0 0 1 5.3e-4,5.3e-4 0.01233588,0.01230645 0 0 1 0.002,0.002 0.01233588,0.01230645 0 0 1 0,0.002 0.01233588,0.01230645 0 0 1 0.002,0 0.01233588,0.01230645 0 0 1 0,0.002 0.01233588,0.01230645 0 0 1 0,0.002 0.01233588,0.01230645 0 0 1 0,0.002 v 1.29243 l 0.39171,0.38913 a 0.01233588,0.01230645 0 0 1 0,0.002 0.01233588,0.01230645 0 0 1 0.002,0.002 0.01233588,0.01230645 0 0 1 0,0.002 0.01233588,0.01230645 0 0 1 0,0.002 0.01233588,0.01230645 0 0 1 0,0.002 0.01233588,0.01230645 0 0 1 0,0.002 0.01233588,0.01230645 0 0 1 0,0.002 0.01233588,0.01230645 0 0 1 0,0.002 0.01233588,0.01230645 0 0 1 -0.002,0.002 0.01233588,0.01230645 0 0 1 -5.3e-4,5.3e-4 0.01233588,0.01230645 0 0 1 -5.3e-4,5.3e-4 0.01233588,0.01230645 0 0 1 -0.002,0.002 0.01233588,0.01230645 0 0 1 -0.002,0 0.01233588,0.01230645 0 0 1 0,0.002 0.01233588,0.01230645 0 0 1 -0.002,0 0.01233588,0.01230645 0 0 1 -0.002,0 0.01233588,0.01230645 0 0 1 -0.002,0 h -1.74644 a 0.01233588,0.01230645 0 0 1 -0.002,0 0.01233588,0.01230645 0 0 1 -0.002,0 0.01233588,0.01230645 0 0 1 -0.002,0 0.01233588,0.01230645 0 0 1 -0.002,-0.002 0.01233588,0.01230645 0 0 1 -0.002,-0.002 0.01233588,0.01230645 0 0 1 0,-0.002 0.01233588,0.01230645 0 0 1 -0.002,0 0.01233588,0.01230645 0 0 1 0,-0.002 c -0.0526,-0.14492 -0.19059,-0.25063 -0.35295,-0.25063 -0.20651,0 -0.37672,0.16972 -0.37672,0.37569 0,0.20603 0.17014,0.37569 0.37672,0.37569 0.16233,0 0.30067,-0.10562 0.35295,-0.25063 a 0.01233588,0.01230645 0 0 1 0,-0.002 0.01233588,0.01230645 0 0 1 0.002,0 0.01233588,0.01230645 0 0 1 0,-0.002 0.01233588,0.01230645 0 0 1 0.002,-0.002 0.01233588,0.01230645 0 0 1 5.3e-4,-5.3e-4 0.01233588,0.01230645 0 0 1 0.002,-0.002 0.01233588,0.01230645 0 0 1 0.002,0 0.01233588,0.01230645 0 0 1 0.002,0 0.01233588,0.01230645 0 0 1 0.002,0 h 1.97869 v -0.004 a 0.01233588,0.01230645 0 0 1 0,-0.002 0.01233588,0.01230645 0 0 1 0,-0.002 0.01233588,0.01230645 0 0 1 0,-0.002 0.01233588,0.01230645 0 0 1 0.002,-0.002 0.01233588,0.01230645 0 0 1 0.002,-0.002 0.01233588,0.01230645 0 0 1 0.002,0 0.01233588,0.01230645 0 0 1 0,-0.002 0.01233588,0.01230645 0 0 1 0.002,0 0.01233588,0.01230645 0 0 1 0.002,0 0.01233588,0.01230645 0 0 1 0.002,0 0.01233588,0.01230645 0 0 1 0.002,0 0.01233588,0.01230645 0 0 1 0.002,0 0.01233588,0.01230645 0 0 1 0.002,0 0.01233588,0.01230645 0 0 1 5.3e-4,5.3e-4 0.01233588,0.01230645 0 0 1 0.001,0.001 0.01233588,0.01230645 0 0 1 0.002,0 l 0.45165,0.44907 a 0.01233588,0.01230645 0 0 1 0,0.002 0.01233588,0.01230645 0 0 1 0.002,0.002 0.01233588,0.01230645 0 0 1 0,0.002 0.01233588,0.01230645 0 0 1 0,0.002 0.01233588,0.01230645 0 0 1 0,0.002 v 0.35451 l -0.11111,0.12764 a 0.03579966,0.03579966 0 0 1 -0.002,0.002 c -0.17627,0.1813 -0.37933,0.34724 -0.61289,0.48835 -0.76897,0.46461 -1.95725,0.36507 -2.71094,-0.1385 a 0.03579966,0.03579966 0 0 1 -0.002,-0.002 h 0.11524 0.0434 1.38338 a 0.01233588,0.01230645 0 0 1 0.002,0 0.01233588,0.01230645 0 0 1 0.002,0 0.01233588,0.01230645 0 0 1 0.002,0 0.01233588,0.01230645 0 0 1 0.002,0.002 0.01233588,0.01230645 0 0 1 5.2e-4,5.3e-4 0.01233588,0.01230645 0 0 1 0.002,0.002 0.01233588,0.01230645 0 0 1 0,0.002 0.01233588,0.01230645 0 0 1 0.002,0 0.01233588,0.01230645 0 0 1 0,0.002 c 0.0553,0.13925 0.18895,0.23926 0.34726,0.23926 0.20651,0 0.37879,-0.16961 0.37879,-0.37568 0,-0.20591 -0.17241,-0.37568 -0.37879,-0.37569 v -0.001 c -0.16658,0 -0.30611,0.1112 -0.35501,0.262 a 0.01233588,0.01230645 0 0 1 0,0.002 0.01233588,0.01230645 0 0 1 -0.002,0.002 0.01233588,0.01230645 0 0 1 -0.002,0.002 0.01233588,0.01230645 0 0 1 -0.002,0 0.01233588,0.01230645 0 0 1 0,0.002 0.01233588,0.01230645 0 0 1 -0.002,0 0.01233588,0.01230645 0 0 1 -0.002,0 0.01233588,0.01230645 0 0 1 -0.002,0 h -1.66553 -0.0434 -0.11989 l -0.0238,-0.0191 v -0.002 a 0.03579966,0.03579966 0 0 1 -0.006,-0.004 0.03579966,0.03579966 0 0 1 -0.002,0 c -0.54361,-0.4843 -0.73523,-0.69086 -1.01079,-0.98753 0.0274,-0.0576 0.046,-0.12051 0.046,-0.1881 0,-0.24771 -0.20394,-0.45114 -0.45165,-0.45114 -0.24771,0 -0.45113,0.20342 -0.45113,0.45114 0,0.2477 0.20342,0.45165 0.45113,0.45165 0.0503,0 0.0975,-0.0112 0.14263,-0.0269 0.29894,0.32262 0.48668,0.52826 1.15238,1.11621 0.85776,0.75755 2.33363,0.94635 3.34398,0.33589 0.97634,-0.58988 1.53268,-1.55937 1.53686,-2.54092 0.002,-0.50922 -0.20394,-1.22144 -0.56999,-1.73633 -0.35683,-0.50195 -0.85357,-0.86875 -1.52755,-1.07022 -0.69912,-0.20899 -1.86458,-0.18365 -2.75177,0.51728 -0.85401,0.67472 -1.76839,1.77553 -2.84583,2.89491 -0.45092,0.46847 -0.85952,0.93878 -1.35495,1.32137 l -0.72192,-0.68833 0.87591,-0.50488 c 0.0715,0.0574 0.16103,0.093 0.2589,0.093 0.22843,0 0.41651,-0.18799 0.41651,-0.41651 0,-0.22843 -0.18801,-0.41548 -0.41651,-0.41548 -0.22843,0 -0.41651,0.18698 -0.41651,0.41548 0,0.0469 0.0107,0.0914 0.0243,0.13384 l -0.96273,0.55655 h -0.98806 v -0.93069 c 0.17653,-0.0484 0.308,-0.20905 0.308,-0.39997 0,-0.22844 -0.1875,-0.41652 -0.416,-0.41652 -0.22842,0 -0.416,0.18801 -0.416,0.41652 0,0.19097 0.13193,0.35178 0.30851,0.39997 v 0.93069 h -1.3224 v -2.96881 c 0.0907,-0.0801 0.1833,-0.15961 0.28991,-0.23926 0.6145,-0.45907 1.58541,-0.58617 2.26549,-0.42375 a 0.03579966,0.03579966 0 0 1 0.002,0 l 0.20671,0.0625 a 0.03579966,0.03579966 0 0 1 0.002,0.002 c 0.004,10e-4 0.005,0.002 0.009,0.003 v 0.87282 h -1.55081 c -0.0471,-0.17774 -0.20859,-0.31109 -0.4005,-0.31109 -0.22845,0 -0.41599,0.18803 -0.41599,0.41651 0,0.22842 0.18747,0.41651 0.41599,0.41651 0.18732,0 0.34539,-0.12767 0.39688,-0.29921 h 1.77767 v -0.9958 c 0.52511,0.26704 0.91378,0.71371 1.53117,1.38234 -0.0339,0.0632 -0.0568,0.13321 -0.0568,0.20929 0,0.24772 0.20393,0.45114 0.45165,0.45114 0.2477,0 0.45114,-0.20342 0.45114,-0.45114 0,-0.2477 -0.20344,-0.45165 -0.45114,-0.45165 -0.0412,0 -0.0801,0.009 -0.11782,0.0196 -0.69415,-0.75484 -1.11336,-1.27468 -1.86035,-1.57664 -0.30195,-0.12205 -0.65927,-0.18338 -1.03302,-0.18191 z m -1.08934,1.29191 c 0.10385,0 0.18552,0.0825 0.18552,0.18604 0,0.10382 -0.0816,0.18552 -0.18552,0.18552 -0.10384,0 -0.18603,-0.0817 -0.18603,-0.18552 0,-0.10385 0.0825,-0.18604 0.18603,-0.18604 z m 9.74773,0.0129 c 0.10349,0 0.18345,0.082 0.18345,0.185 0,0.10307 -0.0801,0.18293 -0.18345,0.18293 -0.10349,0 -0.185,-0.0796 -0.185,-0.18293 0,-0.10333 0.0815,-0.185 0.185,-0.185 z m -10.83138,0.0506 v 3.24735 l -0.032,-0.0341 -0.004,-0.004 a 0.03579966,0.03579966 0 0 1 -0.002,-0.002 c -0.29743,-0.36796 -0.49758,-0.83777 -0.50592,-1.40612 -0.0128,-0.86529 0.16317,-1.35683 0.50592,-1.76165 a 0.03579966,0.03579966 0 0 1 0.002,-0.002 l 0.004,-0.004 z m 11.98066,0.17053 c 0.2734,0.43546 0.44401,1.05935 0.44235,1.43712 -0.002,0.4748 -0.15489,0.95179 -0.44235,1.37408 z m -6.79648,0.46302 c 0.11268,0 0.20154,0.0889 0.20154,0.20154 0,0.11268 -0.0889,0.20102 -0.20154,0.20102 -0.11268,0 -0.20154,-0.0884 -0.20154,-0.20102 0,-0.11268 0.0889,-0.20154 0.20154,-0.20154 z m 2.61638,0.25167 c 0.10374,0 0.18552,0.0817 0.18552,0.185 0,0.10322 -0.082,0.185 -0.18552,0.185 -0.10357,0 -0.18552,-0.0817 -0.18552,-0.185 0,-0.10334 0.0821,-0.185 0.18552,-0.185 z m -6.11074,0.308 c 0.10383,0 0.18552,0.0824 0.18552,0.18603 0,0.10384 -0.0818,0.185 -0.18552,0.185 -0.10404,0 -0.18552,-0.0812 -0.18552,-0.185 0,-0.10382 0.0817,-0.18603 0.18552,-0.18603 z m 2.45101,0.64078 c 0.10384,0 0.18552,0.082 0.18552,0.18552 0,0.10384 -0.0817,0.18552 -0.18552,0.18552 -0.10406,0 -0.18603,-0.0817 -0.18603,-0.18552 0,-0.10385 0.0825,-0.18552 0.18603,-0.18552 z m 2.46135,0.23668 c 0.11268,0 0.20154,0.0884 0.20154,0.20102 0,0.11268 -0.0889,0.20154 -0.20154,0.20154 -0.11268,0 -0.20102,-0.0889 -0.20102,-0.20154 0,-0.11268 0.0884,-0.20102 0.20102,-0.20102 z m 2.36471,0.0589 c 0.10359,0 0.18501,0.0797 0.185,0.18294 0,0.10334 -0.0816,0.185 -0.185,0.185 -0.10375,0 -0.18552,-0.0818 -0.18552,-0.185 0,-0.10321 0.0822,-0.18294 0.18552,-0.18294 z m -8.70696,0.81081 h 2.50941 l 0.76998,0.73484 -0.0367,0.0263 a 0.03579966,0.03579966 0 0 1 -0.002,0 c -0.0466,0.0314 -0.0901,0.0627 -0.13694,0.0915 -0.60915,0.37355 -1.28627,0.53286 -2.14251,0.26356 -0.33021,-0.10387 -0.66914,-0.29137 -0.9617,-0.54829 z m 9.98647,0.45475 c 0.10348,0 0.18552,0.0812 0.18552,0.18448 0,0.10332 -0.082,0.18501 -0.18552,0.18501 -0.10357,0 -0.18292,-0.0819 -0.18293,-0.18501 0,-0.10316 0.0794,-0.18448 0.18293,-0.18448 z"
       id="path4768-37-9-3-6-4" />
  </g>
</svg>
