<?xml version="1.0" encoding="UTF-8" standalone="no"?>
<!-- Created with Inkscape (http://www.inkscape.org/) -->

<svg
   xmlns:dc="http://purl.org/dc/elements/1.1/"
   xmlns:cc="http://creativecommons.org/ns#"
   xmlns:rdf="http://www.w3.org/1999/02/22-rdf-syntax-ns#"
   xmlns:svg="http://www.w3.org/2000/svg"
   xmlns="http://www.w3.org/2000/svg"
   xmlns:sodipodi="http://sodipodi.sourceforge.net/DTD/sodipodi-0.dtd"
   xmlns:inkscape="http://www.inkscape.org/namespaces/inkscape"
   width="15mm"
   height="15mm"
   viewBox="0 0 15 15"
   version="1.1"
   id="svg7896"
   inkscape:version="0.92.2 2405546, 2018-03-11"
   sodipodi:docname="cyberloop-consulting-logo.svg"
   inkscape:export-filename="/data/Workspaces/SELF/Logo/cyberloop-consulting-logo.png"
   inkscape:export-xdpi="1219.2"
   inkscape:export-ydpi="1219.2">
  <defs
     id="defs7890" />
  <sodipodi:namedview
     id="base"
     pagecolor="#ffffff"
     bordercolor="#666666"
     borderopacity="1.0"
     inkscape:pageopacity="0.0"
     inkscape:pageshadow="2"
     inkscape:zoom="11.2"
     inkscape:cx="74.151352"
     inkscape:cy="24.415965"
     inkscape:document-units="mm"
     inkscape:current-layer="layer1"
     showgrid="false"
     fit-margin-top="0"
     fit-margin-left="0"
     fit-margin-right="0"
     fit-margin-bottom="0"
     inkscape:window-width="3328"
     inkscape:window-height="1804"
     inkscape:window-x="2880"
     inkscape:window-y="68"
     inkscape:window-maximized="0" />
  <metadata
     id="metadata7893">
    <rdf:RDF>
      <cc:Work
         rdf:about="">
        <dc:format>image/svg+xml</dc:format>
        <dc:type
           rdf:resource="http://purl.org/dc/dcmitype/StillImage" />
        <dc:title></dc:title>
      </cc:Work>
    </rdf:RDF>
  </metadata>
  <g
     inkscape:label="Layer 1"
     inkscape:groupmode="layer"
     id="layer1"
     transform="translate(-151.19006,-44.521461)">
    <path
       style="color:#000000;font-style:normal;font-variant:normal;font-weight:normal;font-stretch:normal;font-size:medium;line-height:normal;font-family:sans-serif;font-variant-ligatures:normal;font-variant-position:normal;font-variant-caps:normal;font-variant-numeric:normal;font-variant-alternates:normal;font-feature-settings:normal;text-indent:0;text-align:start;text-decoration:none;text-decoration-line:none;text-decoration-style:solid;text-decoration-color:#000000;letter-spacing:normal;word-spacing:normal;text-transform:none;writing-mode:lr-tb;direction:ltr;text-orientation:mixed;dominant-baseline:auto;baseline-shift:baseline;text-anchor:start;white-space:normal;shape-padding:0;clip-rule:nonzero;display:inline;overflow:visible;visibility:visible;opacity:1;isolation:auto;mix-blend-mode:normal;color-interpolation:sRGB;color-interpolation-filters:linearRGB;solid-color:#000000;solid-opacity:1;vector-effect:none;fill:#1e88e5;fill-opacity:1;fill-rule:nonzero;stroke:#1565c0;stroke-width:0.02989792;stroke-linecap:butt;stroke-linejoin:miter;stroke-miterlimit:4;stroke-dasharray:none;stroke-dashoffset:0;stroke-opacity:1;color-rendering:auto;image-rendering:auto;shape-rendering:auto;text-rendering:auto;enable-background:accumulate"
       d="m 154.92136,49.219433 c -0.62214,0.005 -1.28725,0.186862 -1.79111,0.563274 -0.77496,0.578948 -1.23555,1.213151 -1.21594,2.547649 0.0201,1.368851 1.03365,2.245085 1.9792,2.542479 0.23389,0.07356 0.45879,0.117401 0.6749,0.135393 0.081,0.0067 0.16067,0.01008 0.23926,0.0098 v -5.33e-4 c 0.55013,-0.0021 1.04078,-0.172308 1.47691,-0.439767 0.72819,-0.446553 1.23393,-1.059635 1.7818,-1.628841 0.83799,-0.870601 1.5753,-1.719813 2.2407,-2.35748 v 0.583943 c -0.16851,0.04602 -0.29456,0.199586 -0.29456,0.381889 0,0.218078 0.17931,0.397394 0.39739,0.397391 0.21808,3e-6 0.39739,-0.179313 0.39739,-0.397391 0,-0.182303 -0.12604,-0.33587 -0.29455,-0.381889 v -0.775663 c 0.12518,-0.113712 0.24879,-0.221832 0.36897,-0.316775 0.78548,-0.620577 1.87585,-0.646041 2.47427,-0.467156 0.46914,0.140242 0.82919,0.359524 1.11621,0.65474 v 2.76469 l -0.84905,-0.848527 v -1.210262 c 0.16244,-0.04996 0.28267,-0.200314 0.28267,-0.378272 0,-0.218075 -0.17931,-0.396875 -0.39739,-0.396875 -0.21808,0 -0.39687,0.178797 -0.39687,0.396875 0,0.1651 0.10259,0.307742 0.24701,0.367419 v 1.330689 l 0.40307,0.403076 h -1.78645 c -0.0552,-0.153302 -0.20109,-0.264583 -0.37259,-0.264583 -0.21808,-3e-6 -0.39739,0.178798 -0.39739,0.396875 0,0.218078 0.17931,0.397391 0.39739,0.397391 0.1715,0 0.3174,-0.111662 0.37259,-0.265099 h 2.03605 v -0.0155 l 0.46096,0.460955 v 0.503327 c -0.17988,0.185656 -0.38789,0.355343 -0.62684,0.499713 -0.78969,0.477129 -1.99341,0.376129 -2.76365,-0.138493 h 1.46192 c 0.0582,0.14741 0.20129,0.253214 0.36845,0.253214 0.21808,0 0.3974,-0.179316 0.3974,-0.397391 0,-0.218077 -0.17932,-0.397391 -0.3974,-0.397393 -0.17584,0 -0.32406,0.117496 -0.37568,0.276987 h -1.78336 c -0.60771,-0.541227 -0.77168,-0.725586 -1.10536,-1.084173 0.0305,-0.05612 0.0496,-0.119203 0.0496,-0.187068 0,-0.218078 -0.17931,-0.397394 -0.39739,-0.397391 -0.21808,-3e-6 -0.39739,0.179313 -0.39739,0.397391 0,0.218077 0.17931,0.397393 0.39739,0.397391 0.0571,2e-6 0.11096,-0.0131 0.1602,-0.03514 0.35731,0.383926 0.50431,0.557841 1.23248,1.200959 0.83977,0.741683 2.29774,0.928417 3.2861,0.331248 0.9633,-0.582023 1.50899,-1.537126 1.51309,-2.500622 0.002,-0.495502 -0.20059,-1.204585 -0.55914,-1.708942 -0.35114,-0.493937 -0.83835,-0.854919 -1.50327,-1.053682 -0.68351,-0.204324 -1.83598,-0.176302 -2.70732,0.512115 -0.84709,0.669263 -1.76178,1.768361 -2.84066,2.889229 -0.46393,0.481991 -0.88377,0.970989 -1.40611,1.363741 l -0.91261,-0.870233 0.83613,-0.482139 c 0.0682,0.05479 0.15356,0.08888 0.24701,0.08888 0.21808,2e-6 0.39739,-0.179314 0.39739,-0.397391 0,-0.218078 -0.17931,-0.397394 -0.39739,-0.397391 -0.21808,-3e-6 -0.39739,0.179313 -0.39739,0.397391 0,0.04486 0.009,0.08728 0.0233,0.12764 l -0.91985,0.531236 h -0.94309 v -0.888836 c 0.16851,-0.04602 0.29455,-0.199585 0.29455,-0.381889 0,-0.218077 -0.17931,-0.397393 -0.39739,-0.397391 -0.21807,-2e-6 -0.39739,0.179314 -0.39739,0.397391 0,0.182304 0.12605,0.33587 0.29456,0.381889 v 0.888836 h -1.26246 V 50.27207 c 0.10545,-0.09524 0.21735,-0.188833 0.34365,-0.283186 0.6299,-0.47058 1.61095,-0.600676 2.30632,-0.4346 v 1.008208 h -1.48105 c -0.0451,-0.169791 -0.19918,-0.29714 -0.3824,-0.29714 -0.21808,-3e-6 -0.39739,0.179313 -0.39739,0.397391 0,0.218078 0.17931,0.397394 0.39739,0.397391 0.17887,3e-6 0.32963,-0.121534 0.37879,-0.285253 h 1.69705 v -1.154967 c 0.0165,0.0061 0.0357,0.0096 0.0517,0.01601 0.68391,0.27646 1.08301,0.783666 1.86397,1.621607 -0.0406,0.06226 -0.0646,0.136252 -0.0646,0.21549 0,0.218077 0.17931,0.397394 0.39739,0.397391 0.21808,3e-6 0.39739,-0.179314 0.39739,-0.397391 0,-0.218078 -0.17931,-0.397394 -0.39739,-0.397391 -0.0453,0 -0.088,0.0096 -0.12867,0.02376 -0.78409,-0.840479 -1.18801,-1.384798 -1.97197,-1.701705 -0.29838,-0.120611 -0.65612,-0.181274 -1.0294,-0.178284 z m 8.58707,1.201994 c 0.0992,0 0.17725,0.07755 0.17725,0.176734 0,0.09918 -0.0781,0.177249 -0.17725,0.177249 -0.0992,0 -0.17725,-0.07807 -0.17725,-0.177249 0,-0.09918 0.0781,-0.176734 0.17725,-0.176734 z m -9.78131,0.06408 c 0.0992,0 0.17724,0.07807 0.17724,0.177249 0,0.09918 -0.0781,0.17725 -0.17724,0.17725 -0.0992,0 -0.17725,-0.07807 -0.17725,-0.17725 0,-0.09918 0.0781,-0.177249 0.17725,-0.177249 z m -1.03457,0.04238 v 3.23701 c -0.30519,-0.375859 -0.51287,-0.856429 -0.52141,-1.438156 -0.0129,-0.875405 0.1688,-1.384419 0.52141,-1.798854 z m 12.00495,0.01085 c 0.008,0.01146 0.0176,0.02199 0.0258,0.03359 0.31706,0.445989 0.51345,1.139285 0.5116,1.559078 -0.002,0.530601 -0.18926,1.063057 -0.53743,1.520839 z m -6.6461,0.75706 c 0.0992,0 0.17725,0.07807 0.17725,0.17725 0,0.09918 -0.0781,0.177249 -0.17725,0.177249 -0.0992,0 -0.17725,-0.07807 -0.17725,-0.177249 0,-0.09918 0.0781,-0.17725 0.17725,-0.17725 z m 2.35851,0.08423 c 0.0992,0 0.17725,0.07807 0.17725,0.17725 0,0.09918 -0.0781,0.177249 -0.17725,0.177249 -0.0992,0 -0.17725,-0.07807 -0.17725,-0.177249 0,-0.09918 0.0781,-0.17725 0.17725,-0.17725 z m -6.10402,0.304374 c 0.0992,0 0.17725,0.07807 0.17725,0.17725 0,0.09918 -0.0781,0.177249 -0.17725,0.177249 -0.0992,0 -0.17725,-0.07807 -0.17725,-0.177249 0,-0.09918 0.0781,-0.17725 0.17725,-0.17725 z m 2.33991,0.611849 c 0.0992,0 0.17725,0.07807 0.17725,0.17725 0,0.09918 -0.0781,0.177249 -0.17725,0.177249 -0.0992,0 -0.17725,-0.07807 -0.17725,-0.177249 0,-0.09918 0.0781,-0.17725 0.17725,-0.17725 z m 2.6541,0.264583 c 0.0992,0 0.17725,0.07807 0.17725,0.17725 0,0.09918 -0.0781,0.17725 -0.17725,0.17725 -0.0992,0 -0.17725,-0.07807 -0.17725,-0.17725 0,-0.09918 0.0781,-0.17725 0.17725,-0.17725 z m 2.3027,0.09354 c 0.0992,0 0.17725,0.07807 0.17725,0.17725 0,0.09918 -0.0781,0.17725 -0.17725,0.17725 -0.0992,0 -0.17725,-0.07807 -0.17725,-0.17725 0,-0.09918 0.0781,-0.177252 0.17725,-0.17725 z m -8.662,0.698149 h 2.39623 l 0.9555,0.911571 c -0.0471,0.03173 -0.0931,0.06453 -0.14211,0.09457 -0.61776,0.378843 -1.31107,0.541922 -2.17971,0.268719 -0.35548,-0.111805 -0.72123,-0.313558 -1.02991,-0.598414 z m 9.97148,0.599964 c 0.0992,0 0.17726,0.07807 0.17726,0.177249 0,0.09918 -0.0781,0.17725 -0.17726,0.17725 -0.0992,0 -0.17725,-0.07807 -0.17725,-0.17725 0,-0.09918 0.0781,-0.177252 0.17725,-0.177249 z"
       id="path4768-37"
       inkscape:connector-curvature="0" />
  </g>
</svg>
