<?xml version="1.0" encoding="UTF-8" standalone="no"?>
<!-- Created with Inkscape (http://www.inkscape.org/) -->

<svg
   xmlns:dc="http://purl.org/dc/elements/1.1/"
   xmlns:cc="http://creativecommons.org/ns#"
   xmlns:rdf="http://www.w3.org/1999/02/22-rdf-syntax-ns#"
   xmlns:svg="http://www.w3.org/2000/svg"
   xmlns="http://www.w3.org/2000/svg"
   xmlns:sodipodi="http://sodipodi.sourceforge.net/DTD/sodipodi-0.dtd"
   xmlns:inkscape="http://www.inkscape.org/namespaces/inkscape"
   width="15mm"
   height="15mm"
   viewBox="0 0 15 15"
   version="1.1"
   id="svg7896"
   inkscape:version="0.92.3 (2405546, 2018-03-11)"
   sodipodi:docname="cyberloop-consulting-logo.svg"
   inkscape:export-filename="D:\Workspaces\SELF\Logo\Version 1\cyberloop-consulting-logo.png"
   inkscape:export-xdpi="1219.2"
   inkscape:export-ydpi="1219.2">
  <defs
     id="defs7890" />
  <sodipodi:namedview
     id="base"
     pagecolor="#ffffff"
     bordercolor="#666666"
     borderopacity="1.0"
     inkscape:pageopacity="0.0"
     inkscape:pageshadow="2"
     inkscape:zoom="22.4"
     inkscape:cx="17.681836"
     inkscape:cy="28.16704"
     inkscape:document-units="mm"
     inkscape:current-layer="layer1"
     showgrid="false"
     fit-margin-top="0"
     fit-margin-left="0"
     fit-margin-right="0"
     fit-margin-bottom="0"
     inkscape:window-width="2736"
     inkscape:window-height="1732"
     inkscape:window-x="-12"
     inkscape:window-y="-12"
     inkscape:window-maximized="1" />
  <metadata
     id="metadata7893">
    <rdf:RDF>
      <cc:Work
         rdf:about="">
        <dc:format>image/svg+xml</dc:format>
        <dc:type
           rdf:resource="http://purl.org/dc/dcmitype/StillImage" />
        <dc:title />
      </cc:Work>
    </rdf:RDF>
  </metadata>
  <g
     inkscape:label="Layer 1"
     inkscape:groupmode="layer"
     id="layer1"
     transform="translate(-151.19006,-44.521461)">
    <path
       inkscape:connector-curvature="0"
       style="color:#000000;font-style:normal;font-variant:normal;font-weight:normal;font-stretch:normal;font-size:medium;line-height:normal;font-family:sans-serif;font-variant-ligatures:normal;font-variant-position:normal;font-variant-caps:normal;font-variant-numeric:normal;font-variant-alternates:normal;font-feature-settings:normal;text-indent:0;text-align:start;text-decoration:none;text-decoration-line:none;text-decoration-style:solid;text-decoration-color:#000000;letter-spacing:normal;word-spacing:normal;text-transform:none;writing-mode:lr-tb;direction:ltr;text-orientation:mixed;dominant-baseline:auto;baseline-shift:baseline;text-anchor:start;white-space:normal;shape-padding:0;clip-rule:nonzero;display:inline;overflow:visible;visibility:visible;opacity:1;isolation:auto;mix-blend-mode:normal;color-interpolation:sRGB;color-interpolation-filters:linearRGB;solid-color:#000000;solid-opacity:1;vector-effect:none;fill:#1e88e5;fill-opacity:1;fill-rule:nonzero;stroke:#1565c0;stroke-width:0.02989792;stroke-linecap:butt;stroke-linejoin:miter;stroke-miterlimit:4;stroke-dasharray:none;stroke-dashoffset:0;stroke-opacity:1;color-rendering:auto;image-rendering:auto;shape-rendering:auto;text-rendering:auto;enable-background:accumulate"
       d="m 154.91159,49.11043 a 0.03579966,0.03579966 0 0 1 -0.0139,0.002 c -0.63121,0.005 -1.30579,0.18995 -1.82005,0.57413 -0.78084,0.58334 -1.25638,1.24242 -1.23661,2.58795 0.0204,1.3923 1.05195,2.28335 2.01383,2.58589 0.23703,0.0746 0.46529,0.12069 0.68523,0.13901 0.0827,0.007 0.16262,0.01 0.24236,0.01 0.56006,-0.002 1.06021,-0.17853 1.50223,-0.44959 0.73651,-0.45166 1.24649,-1.06912 1.79266,-1.63659 0.83907,-0.87171 1.57581,-1.72022 2.23862,-2.35541 l 0.13436,-0.12661 v 0.157099 0.0543 0.51004 a 0.01233588,0.01230645 0 0 1 0,0.002 0.01233588,0.01230645 0 0 1 0,0.002 0.01233588,0.01230645 0 0 1 0,0.002 0.01233588,0.01230645 0 0 1 -0.002,0.002 0.01233588,0.01230645 0 0 1 -0.002,0.002 0.01233588,0.01230645 0 0 1 -0.002,0 0.01233588,0.01230645 0 0 1 0,0.002 0.01233588,0.01230645 0 0 1 -0.002,0 c -0.15961,0.0437 -0.27958,0.18746 -0.27957,0.35967 0,0.20603 0.16971,0.37776 0.3762,0.37776 0.20644,0 0.37672,-0.17165 0.37672,-0.37776 0,-0.17226 -0.12043,-0.31619 -0.28009,-0.35967 a 0.01233588,0.01230645 0 0 1 -0.002,0 0.01233588,0.01230645 0 0 1 0,-0.002 0.01233588,0.01230645 0 0 1 -0.002,0 0.01233588,0.01230645 0 0 1 -5.3e-4,-5.29e-4 0.01233588,0.01230645 0 0 1 -10e-4,-0.002 0.01233588,0.01230645 0 0 1 -5.3e-4,-5.29e-4 0.01233588,0.01230645 0 0 1 -0.001,-0.002 0.01233588,0.01230645 0 0 1 0,-0.002 0.01233588,0.01230645 0 0 1 0,-0.002 0.01233588,0.01230645 0 0 1 0,-0.002 v -0.685742 -0.0439 -0.10232 l 0.028,-0.0682 c 0.078,-0.068 0.15682,-0.1385 0.23203,-0.19792 0.76921,-0.60772 1.84752,-0.63502 2.42982,-0.46095 0.46246,0.13824 0.81438,0.35314 1.09554,0.64233 a 0.03579966,0.03579966 0 0 1 0.002,0.002 l 0.10697,0.12764 v 2.60243 a 0.01233588,0.01230645 0 0 1 0,0.002 0.01233588,0.01230645 0 0 1 0,0.002 0.01233588,0.01230645 0 0 1 0,0.002 0.01233588,0.01230645 0 0 1 -0.002,0.002 0.01233588,0.01230645 0 0 1 -0.002,0.002 0.01233588,0.01230645 0 0 1 -0.002,0 0.01233588,0.01230645 0 0 1 0,0.002 0.01233588,0.01230645 0 0 1 -0.002,0 0.01233588,0.01230645 0 0 1 -0.002,0 0.01233588,0.01230645 0 0 1 -0.002,0 0.01233588,0.01230645 0 0 1 -0.002,0 0.01233588,0.01230645 0 0 1 -0.002,0 0.01233588,0.01230645 0 0 1 -0.002,0 0.01233588,0.01230645 0 0 1 -5.3e-4,-5.29e-4 0.01233588,0.01230645 0 0 1 -10e-4,-10e-4 0.01233588,0.01230645 0 0 1 -0.002,0 l -0.83034,-0.828431 a 0.01233588,0.01230645 0 0 1 0,-0.002 0.01233588,0.01230645 0 0 1 -5.3e-4,-5.29e-4 0.01233588,0.01230645 0 0 1 -0.001,-10e-4 0.01233588,0.01230645 0 0 1 0,-0.002 0.01233588,0.01230645 0 0 1 0,-0.002 0.01233588,0.01230645 0 0 1 0,-0.002 v -1.180242 a 0.01233588,0.01230645 0 0 1 0,-0.002 0.01233588,0.01230645 0 0 1 0,-0.002 0.01233588,0.01230645 0 0 1 0,-0.002 0.01233588,0.01230645 0 0 1 0.002,-0.002 0.01233588,0.01230645 0 0 1 0.002,-0.002 0.01233588,0.01230645 0 0 1 0.002,0 0.01233588,0.01230645 0 0 1 0,-0.002 0.01233588,0.01230645 0 0 1 0.002,0 c 0.15396,-0.0473 0.2682,-0.18797 0.2682,-0.35605 0,-0.20583 -0.16991,-0.37746 -0.37621,-0.37776 l 5.3e-4,-0.001 c -0.2062,2.6e-4 -0.37569,0.17194 -0.37569,0.37775 0,0.15592 0.0969,0.29039 0.23358,0.34675 a 0.01233588,0.01230645 0 0 1 0.002,0 0.01233588,0.01230645 0 0 1 0.001,5.3e-4 0.01233588,0.01230645 0 0 1 5.3e-4,5.29e-4 0.01233588,0.01230645 0 0 1 0.002,0.002 0.01233588,0.01230645 0 0 1 0,0.002 0.01233588,0.01230645 0 0 1 0.002,0 0.01233588,0.01230645 0 0 1 0,0.002 0.01233588,0.01230645 0 0 1 0,0.002 0.01233588,0.01230645 0 0 1 0,0.002 v 1.292432 l 0.39164,0.38913 a 0.01233588,0.01230645 0 0 1 0,0.002 0.01233588,0.01230645 0 0 1 0.002,0.002 0.01233588,0.01230645 0 0 1 0,0.002 0.01233588,0.01230645 0 0 1 0,0.002 0.01233588,0.01230645 0 0 1 0,0.002 0.01233588,0.01230645 0 0 1 0,0.002 0.01233588,0.01230645 0 0 1 0,0.002 0.01233588,0.01230645 0 0 1 0,0.002 0.01233588,0.01230645 0 0 1 -0.002,0.002 0.01233588,0.01230645 0 0 1 -5.3e-4,5.29e-4 0.01233588,0.01230645 0 0 1 -5.3e-4,5.29e-4 0.01233588,0.01230645 0 0 1 -0.002,0.002 0.01233588,0.01230645 0 0 1 -0.002,0 0.01233588,0.01230645 0 0 1 0,0.002 0.01233588,0.01230645 0 0 1 -0.002,0 0.01233588,0.01230645 0 0 1 -0.002,0 0.01233588,0.01230645 0 0 1 -0.002,0 h -1.74657 a 0.01233588,0.01230645 0 0 1 -0.002,0 0.01233588,0.01230645 0 0 1 -0.002,0 0.01233588,0.01230645 0 0 1 -0.002,0 0.01233588,0.01230645 0 0 1 -0.002,-0.002 0.01233588,0.01230645 0 0 1 -0.002,-0.002 0.01233588,0.01230645 0 0 1 0,-0.002 0.01233588,0.01230645 0 0 1 -0.002,0 0.01233588,0.01230645 0 0 1 0,-0.002 c -0.0526,-0.14492 -0.19059,-0.25063 -0.35295,-0.25063 -0.20651,0 -0.37672,0.16972 -0.37672,0.37569 0,0.20603 0.17014,0.37569 0.37672,0.37569 0.16233,0 0.30067,-0.10562 0.35295,-0.25063 a 0.01233588,0.01230645 0 0 1 0,-0.002 0.01233588,0.01230645 0 0 1 0.002,0 0.01233588,0.01230645 0 0 1 0,-0.002 0.01233588,0.01230645 0 0 1 0.002,-0.002 0.01233588,0.01230645 0 0 1 5.2e-4,-5.3e-4 0.01233588,0.01230645 0 0 1 0.002,-0.002 0.01233588,0.01230645 0 0 1 0.002,0 0.01233588,0.01230645 0 0 1 0.002,0 0.01233588,0.01230645 0 0 1 0.002,0 h 1.97869 v -0.004 a 0.01233588,0.01230645 0 0 1 0,-0.002 0.01233588,0.01230645 0 0 1 0,-0.002 0.01233588,0.01230645 0 0 1 0,-0.002 0.01233588,0.01230645 0 0 1 0.002,-0.002 0.01233588,0.01230645 0 0 1 0.002,-0.002 0.01233588,0.01230645 0 0 1 0.002,0 0.01233588,0.01230645 0 0 1 0,-0.002 0.01233588,0.01230645 0 0 1 0.002,0 0.01233588,0.01230645 0 0 1 0.002,0 0.01233588,0.01230645 0 0 1 0.002,0 0.01233588,0.01230645 0 0 1 0.002,0 0.01233588,0.01230645 0 0 1 0.002,0 0.01233588,0.01230645 0 0 1 0.002,0 0.01233588,0.01230645 0 0 1 5.3e-4,5.29e-4 0.01233588,0.01230645 0 0 1 0.001,10e-4 0.01233588,0.01230645 0 0 1 0.002,0 l 0.45165,0.44907 a 0.01233588,0.01230645 0 0 1 0,0.002 0.01233588,0.01230645 0 0 1 0.002,0.002 0.01233588,0.01230645 0 0 1 0,0.002 0.01233588,0.01230645 0 0 1 0,0.002 0.01233588,0.01230645 0 0 1 0,0.002 v 0.35451 l -0.11111,0.12764 a 0.03579966,0.03579966 0 0 1 -0.002,0.002 c -0.17627,0.1813 -0.37933,0.34724 -0.61289,0.48835 -0.76897,0.46461 -1.95725,0.36507 -2.71094,-0.1385 a 0.03579966,0.03579966 0 0 1 -0.002,-0.002 h 0.11524 0.0434 1.38338 a 0.01233588,0.01230645 0 0 1 0.002,0 0.01233588,0.01230645 0 0 1 0.002,0 0.01233588,0.01230645 0 0 1 0.002,0 0.01233588,0.01230645 0 0 1 0.002,0.002 0.01233588,0.01230645 0 0 1 5.3e-4,5.29e-4 0.01233588,0.01230645 0 0 1 0.002,0.002 0.01233588,0.01230645 0 0 1 0,0.002 0.01233588,0.01230645 0 0 1 0.002,0 0.01233588,0.01230645 0 0 1 0,0.002 c 0.0553,0.13925 0.18895,0.23926 0.34726,0.23926 0.20651,0 0.37879,-0.16961 0.37879,-0.37568 0,-0.20591 -0.17241,-0.37568 -0.37879,-0.37569 v -10e-4 c -0.16658,0 -0.30611,0.1112 -0.35501,0.262 a 0.01233588,0.01230645 0 0 1 0,0.002 0.01233588,0.01230645 0 0 1 -0.002,0.002 0.01233588,0.01230645 0 0 1 -0.002,0.002 0.01233588,0.01230645 0 0 1 -0.002,0 0.01233588,0.01230645 0 0 1 0,0.002 0.01233588,0.01230645 0 0 1 -0.002,0 0.01233588,0.01230645 0 0 1 -0.002,0 0.01233588,0.01230645 0 0 1 -0.002,0 h -1.66564 -0.0434 -0.11989 l -0.0238,-0.0191 v -0.002 a 0.03579966,0.03579966 0 0 1 -0.006,-0.004 0.03579966,0.03579966 0 0 1 -0.002,0 c -0.54361,-0.4843 -0.73523,-0.69086 -1.01079,-0.98753 0.0274,-0.0576 0.046,-0.12051 0.046,-0.1881 0,-0.24771 -0.20394,-0.45114 -0.45165,-0.45114 -0.24771,0 -0.45113,0.20342 -0.45113,0.45114 0,0.2477 0.20342,0.45165 0.45113,0.45165 0.0503,0 0.0975,-0.0112 0.14263,-0.0269 0.29894,0.32262 0.48668,0.52826 1.15238,1.11621 0.85776,0.75755 2.33363,0.94635 3.34398,0.33589 0.97634,-0.58988 1.53268,-1.55937 1.53686,-2.54092 0.002,-0.509314 -0.20393,-1.221534 -0.56998,-1.736424 -0.35683,-0.50195 -0.85357,-0.86875 -1.52755,-1.07022 -0.69912,-0.20899 -1.86458,-0.18365 -2.75177,0.51728 -0.85401,0.67472 -1.76839,1.77553 -2.84583,2.89491 -0.45092,0.46847 -0.85952,0.93878 -1.35495,1.32137 l -0.72192,-0.68833 0.87591,-0.50488 c 0.0715,0.0574 0.16103,0.093 0.2589,0.093 0.22843,0 0.41651,-0.18799 0.41651,-0.41651 0,-0.22843 -0.18801,-0.41548 -0.41651,-0.41548 -0.22843,0 -0.41651,0.18698 -0.41651,0.41548 0,0.0469 0.0107,0.0914 0.0243,0.13384 l -0.96273,0.55655 h -0.98806 v -0.93069 c 0.17653,-0.0484 0.308,-0.20905 0.308,-0.39997 0,-0.22844 -0.1875,-0.41652 -0.416,-0.41652 -0.22842,0 -0.416,0.18801 -0.416,0.41652 0,0.19097 0.13193,0.35178 0.30851,0.39997 v 0.93069 h -1.3224 v -2.96881 c 0.0907,-0.0801 0.1833,-0.15961 0.28991,-0.23926 0.6145,-0.45907 1.58541,-0.58617 2.26549,-0.42375 a 0.03579966,0.03579966 0 0 1 0.002,0 l 0.20671,0.0625 a 0.03579966,0.03579966 0 0 1 0.002,0.002 c 0.004,0.001 0.005,0.002 0.009,0.003 v 0.87282 h -1.55083 c -0.0471,-0.17774 -0.20859,-0.31109 -0.4005,-0.31109 -0.22845,0 -0.41599,0.18803 -0.41599,0.41651 0,0.22842 0.18747,0.41651 0.41599,0.41651 0.18732,0 0.34539,-0.12767 0.39688,-0.29921 h 1.77767 v -0.9958 c 0.52511,0.26704 0.91378,0.71371 1.53117,1.38234 -0.0339,0.0632 -0.0568,0.13321 -0.0568,0.20929 0,0.24772 0.20393,0.45114 0.45165,0.45114 0.2477,0 0.45114,-0.20342 0.45114,-0.45114 0,-0.2477 -0.20344,-0.45165 -0.45114,-0.45165 -0.0412,0 -0.0801,0.009 -0.11782,0.0196 -0.69415,-0.75484 -1.11336,-1.27468 -1.86035,-1.57664 -0.30195,-0.12205 -0.65927,-0.18338 -1.03302,-0.18191 z m -1.08934,1.29191 c 0.10385,0 0.18552,0.0825 0.18552,0.18604 0,0.10382 -0.0816,0.18552 -0.18552,0.18552 -0.10384,0 -0.18603,-0.0817 -0.18603,-0.18552 0,-0.10385 0.0825,-0.18604 0.18603,-0.18604 z m 9.74773,0.0129 c 0.10349,0 0.18345,0.082 0.18345,0.185 0,0.10307 -0.0801,0.18293 -0.18345,0.18293 -0.10349,0 -0.185,-0.0796 -0.185,-0.18293 0,-0.10333 0.0815,-0.185 0.185,-0.185 z m -10.83138,0.0506 v 3.24735 l -0.032,-0.0341 -0.004,-0.004 a 0.03579966,0.03579966 0 0 1 -0.002,-0.002 c -0.29743,-0.367949 -0.49758,-0.837759 -0.50592,-1.406109 -0.0128,-0.86529 0.16317,-1.35683 0.50592,-1.76165 a 0.03579966,0.03579966 0 0 1 0.002,-0.002 l 0.004,-0.004 z m 11.98066,0.17053 c 0.2734,0.43546 0.44401,1.05935 0.44235,1.43712 -0.002,0.4748 -0.15489,0.95179 -0.44235,1.37408 z m -6.79648,0.46302 c 0.11268,0 0.20154,0.0889 0.20154,0.20154 0,0.11268 -0.0889,0.20102 -0.20154,0.20102 -0.11268,0 -0.20154,-0.0884 -0.20154,-0.20102 0,-0.11268 0.0889,-0.20154 0.20154,-0.20154 z m 2.61638,0.25167 c 0.10374,0 0.18552,0.0817 0.18552,0.185 0,0.10322 -0.082,0.185 -0.18552,0.185 -0.10357,0 -0.18552,-0.0817 -0.18552,-0.185 0,-0.10334 0.0821,-0.185 0.18552,-0.185 z m -6.11074,0.308 c 0.10383,0 0.18552,0.0824 0.18552,0.18603 0,0.10384 -0.0818,0.185 -0.18552,0.185 -0.10404,0 -0.18552,-0.0812 -0.18552,-0.185 0,-0.10382 0.0817,-0.18603 0.18552,-0.18603 z m 2.45101,0.64078 c 0.10384,0 0.18552,0.082 0.18552,0.18552 0,0.10384 -0.0817,0.18552 -0.18552,0.18552 -0.10406,0 -0.18603,-0.0817 -0.18603,-0.18552 0,-0.10385 0.0825,-0.18552 0.18603,-0.18552 z m 2.46135,0.23668 c 0.11268,0 0.20154,0.0884 0.20154,0.20102 0,0.11268 -0.0889,0.20154 -0.20154,0.20154 -0.11268,0 -0.20102,-0.0889 -0.20102,-0.20154 0,-0.11268 0.0884,-0.20102 0.20102,-0.20102 z m 2.36471,0.0589 c 0.10359,0 0.18501,0.0797 0.185,0.18294 0,0.10334 -0.0816,0.185 -0.185,0.185 -0.10375,0 -0.18552,-0.0818 -0.18552,-0.185 0,-0.10321 0.0822,-0.18294 0.18552,-0.18294 z m -8.70696,0.81081 h 2.50941 l 0.76998,0.73484 -0.0367,0.0263 a 0.03579966,0.03579966 0 0 1 -0.002,0 c -0.0466,0.0314 -0.0901,0.0627 -0.13694,0.0915 -0.60915,0.37355 -1.28627,0.53286 -2.14251,0.26356 -0.3302,-0.10387 -0.66913,-0.29137 -0.96169,-0.54829 z m 9.98647,0.45475 c 0.10348,0 0.18552,0.0812 0.18552,0.18448 0,0.10332 -0.082,0.18501 -0.18552,0.18501 -0.10357,0 -0.18292,-0.0819 -0.18293,-0.18501 0,-0.10316 0.0794,-0.18448 0.18293,-0.18448 z"
       id="path4768-37-9-3-6-4" />
  </g>
</svg>
